<svg preserveAspectRatio="xMidYMid meet" overflow="visible" viewBox="0 0 1029 600" fill="none" xmlns="http://www.w3.org/2000/svg">
<g id="Frame 1">
<path id="Vector" d="M0 0C339.57 0 679.14 0 1029 0C1029 198 1029 396 1029 600C689.43 600 349.86 600 0 600C0 402 0 204 0 0Z" fill="var(--fill-0, #176F38)"/>
<path id="Vector_2" d="M114.767 315.159C383.204 315.159 651.641 315.159 928.213 315.159C928.213 318.056 928.213 320.954 928.213 323.939C659.776 323.939 391.339 323.939 114.767 323.939C114.767 321.042 114.767 318.144 114.767 315.159Z" fill="var(--fill-0, #FEFEFE)"/>
<path id="Vector_3" d="M411.519 397.903C411.746 397.904 411.973 397.906 412.207 397.907C415.874 397.938 419.248 398.274 422.654 399.712C422.859 399.797 423.064 399.882 423.275 399.97C430.808 403.214 436.506 409.362 439.692 416.868C445.077 430.6 444.718 449.031 438.965 462.6C437.392 466.067 435.224 469.322 432.408 471.907C432.193 471.907 431.978 471.907 431.757 471.907C431.757 472.122 431.757 472.336 431.757 472.557C429.085 474.778 426.198 476.195 422.979 477.435C422.714 477.549 422.449 477.663 422.176 477.78C416.344 479.949 408.092 480.159 402.291 477.938C392.89 473.618 387.229 466.275 383.668 456.764C382.708 454.03 382.116 451.186 381.538 448.351C381.428 447.821 381.309 447.293 381.178 446.768C380.562 444.15 380.585 441.512 380.592 438.838C380.592 438.587 380.592 438.336 380.592 438.077C380.601 433.743 381.008 429.629 382.014 425.403C382.066 425.172 382.118 424.941 382.172 424.704C383.694 418.023 386.459 411.328 391.118 406.216C391.296 406.011 391.475 405.807 391.659 405.596C396.556 400.303 404.533 397.811 411.519 397.903Z" fill="var(--fill-0, #176F38)"/>
<path id="Vector_4" d="M606.224 395.386C606.938 395.385 607.652 395.384 608.366 395.382C609.858 395.38 611.35 395.38 612.842 395.381C614.734 395.383 616.627 395.378 618.519 395.37C619.993 395.365 621.467 395.365 622.941 395.366C623.638 395.366 624.335 395.364 625.031 395.361C632.771 395.329 641.108 395.536 647.128 401.094C651.811 406.031 653.309 411.579 653.234 418.186C653.181 420.064 652.866 421.699 652.188 423.452C652.097 423.726 652.007 424.001 651.913 424.284C651.172 426.384 650.04 427.941 648.611 429.63C648.402 429.902 648.192 430.174 647.976 430.454C645.58 433.345 642.03 435.189 638.858 437.11C639.721 439.367 640.695 441.539 641.784 443.695C641.939 444.004 642.094 444.313 642.254 444.631C643.497 447.088 644.802 449.507 646.133 451.917C647.193 453.842 648.215 455.782 649.216 457.737C654.795 469.601 654.795 469.601 664.867 477.11C666.801 477.621 668.757 478.024 670.719 478.411C670.719 479.269 670.719 480.128 670.719 481.013C663.638 481.013 656.557 481.013 649.262 481.013C647.287 477.26 645.332 473.518 643.47 469.711C642.511 467.771 641.508 465.866 640.462 463.972C638.812 460.983 637.232 457.968 635.721 454.906C635.541 454.542 635.361 454.178 635.176 453.803C634.44 452.309 633.705 450.814 632.974 449.317C632.429 448.204 631.881 447.094 631.332 445.983C631.169 445.648 631.007 445.312 630.839 444.966C629.31 441.713 629.31 441.713 626.531 439.665C624.776 439.217 622.96 439.235 621.159 439.183C620.616 439.164 620.616 439.164 620.063 439.145C619.175 439.115 618.288 439.087 617.4 439.061C617.42 443.469 617.445 447.876 617.477 452.283C617.491 454.329 617.504 456.376 617.513 458.423C617.521 460.398 617.534 462.374 617.551 464.35C617.556 465.103 617.56 465.856 617.562 466.609C617.565 467.665 617.574 468.721 617.585 469.778C617.584 470.088 617.584 470.398 617.583 470.717C617.61 472.63 617.892 474.067 618.7 475.809C620.692 477.476 623.896 477.913 626.381 478.509C626.769 478.603 626.769 478.603 627.165 478.699C627.398 478.754 627.63 478.808 627.87 478.864C628.454 479.061 628.454 479.061 629.104 479.712C629.104 480.248 629.104 480.785 629.104 481.338C617.624 481.338 606.144 481.338 594.317 481.338C594.317 479.387 594.317 479.387 594.642 478.736C595.398 478.546 596.13 478.397 596.897 478.269C597.125 478.228 597.353 478.188 597.587 478.146C598.339 478.014 599.091 477.887 599.844 477.761C600.114 477.715 600.384 477.669 600.663 477.621C602.34 477.337 604.017 477.059 605.696 476.785C606.065 475.569 606.124 474.348 606.191 473.087C606.205 472.836 606.219 472.584 606.233 472.325C606.881 459.854 606.782 447.365 606.773 434.882C606.772 432.305 606.777 429.729 606.783 427.152C606.788 424.636 606.79 422.12 606.789 419.604C606.789 418.114 606.79 416.624 606.794 415.135C606.798 413.744 606.798 412.354 606.793 410.963C606.793 410.456 606.793 409.95 606.796 409.443C606.915 405.257 606.915 405.257 605.696 401.338C604.741 400.856 603.787 400.589 602.746 400.362C602.503 400.309 602.261 400.256 602.011 400.201C601.758 400.147 601.506 400.093 601.246 400.037C600.986 399.98 600.727 399.924 600.46 399.865C598.812 399.507 597.162 399.168 595.504 398.864C594.967 398.736 594.967 398.736 594.642 398.411C594.628 397.652 594.628 396.893 594.642 396.135C598.489 395.332 602.312 395.383 606.224 395.386Z" fill="var(--fill-0, #FBFCFC)"/>
<path id="Vector_5" d="M95.1378 395.386C95.8516 395.385 96.5654 395.384 97.2792 395.382C98.7713 395.38 100.263 395.38 101.755 395.381C103.648 395.383 105.54 395.378 107.433 395.37C108.907 395.365 110.381 395.365 111.855 395.366C112.552 395.366 113.248 395.364 113.945 395.361C121.685 395.329 130.022 395.536 136.042 401.094C140.725 406.031 142.223 411.579 142.148 418.186C142.094 420.064 141.78 421.699 141.101 423.452C141.011 423.726 140.92 424.001 140.827 424.284C140.086 426.384 138.954 427.941 137.525 429.63C137.316 429.902 137.106 430.174 136.89 430.454C134.494 433.345 130.944 435.189 127.772 437.11C128.635 439.367 129.608 441.539 130.698 443.695C130.853 444.004 131.008 444.313 131.168 444.631C132.411 447.088 133.716 449.507 135.047 451.917C136.107 453.842 137.128 455.782 138.13 457.737C143.709 469.601 143.709 469.601 153.781 477.11C155.715 477.621 157.671 478.024 159.633 478.411C159.633 479.269 159.633 480.128 159.633 481.013C152.552 481.013 145.471 481.013 138.175 481.013C136.201 477.26 134.245 473.518 132.384 469.711C131.425 467.771 130.422 465.866 129.376 463.972C127.726 460.983 126.146 457.968 124.635 454.906C124.455 454.542 124.275 454.178 124.09 453.803C123.353 452.309 122.619 450.814 121.888 449.317C121.343 448.204 120.795 447.094 120.246 445.983C120.083 445.648 119.92 445.312 119.753 444.966C118.223 441.713 118.223 441.713 115.445 439.665C113.69 439.217 111.874 439.235 110.073 439.183C109.53 439.164 109.53 439.164 108.976 439.145C108.089 439.115 107.201 439.087 106.314 439.061C106.334 443.469 106.359 447.876 106.39 452.283C106.405 454.329 106.418 456.376 106.426 458.423C106.435 460.398 106.448 462.374 106.464 464.35C106.47 465.103 106.473 465.856 106.476 466.609C106.479 467.665 106.488 468.721 106.498 469.778C106.498 470.088 106.497 470.398 106.497 470.717C106.524 472.63 106.806 474.067 107.614 475.809C109.606 477.476 112.81 477.913 115.295 478.509C115.683 478.603 115.683 478.603 116.079 478.699C116.311 478.754 116.544 478.808 116.784 478.864C117.368 479.061 117.368 479.061 118.018 479.712C118.018 480.248 118.018 480.785 118.018 481.338C106.538 481.338 95.0581 481.338 83.2303 481.338C83.2303 479.387 83.2303 479.387 83.5554 478.736C84.3115 478.546 85.0438 478.397 85.811 478.269C86.0387 478.228 86.2665 478.188 86.5012 478.146C87.2527 478.014 88.0049 477.887 88.7573 477.761C89.0277 477.715 89.2981 477.669 89.5767 477.621C91.2534 477.337 92.931 477.059 94.6095 476.785C94.9783 475.569 95.038 474.348 95.105 473.087C95.1187 472.836 95.1325 472.584 95.1466 472.325C95.7952 459.854 95.6953 447.365 95.6868 434.882C95.6855 432.305 95.6903 429.729 95.6964 427.152C95.7022 424.636 95.7041 422.12 95.703 419.604C95.7025 418.114 95.7033 416.624 95.7078 415.135C95.7119 413.744 95.7113 412.354 95.707 410.963C95.7063 410.456 95.7072 409.95 95.7099 409.443C95.829 405.257 95.829 405.257 94.6095 401.338C93.655 400.856 92.7008 400.589 91.6593 400.362C91.4168 400.309 91.1743 400.256 90.9245 400.201C90.672 400.147 90.4196 400.093 90.1594 400.037C89.9 399.98 89.6406 399.924 89.3734 399.865C87.7261 399.507 86.0761 399.168 84.4178 398.864C83.8806 398.736 83.8806 398.736 83.5554 398.411C83.5421 397.652 83.5417 396.893 83.5554 396.135C87.4027 395.332 91.226 395.383 95.1378 395.386Z" fill="var(--fill-0, #FBFCFC)"/>
<path id="Vector_6" d="M412.697 395.017C413.089 395.018 413.089 395.018 413.49 395.02C417.524 395.042 421.376 395.257 425.255 396.46C425.475 396.526 425.695 396.592 425.921 396.66C431.091 398.273 436.262 400.865 440.21 404.59C440.506 404.864 440.801 405.137 441.106 405.419C446.541 410.644 450.537 417.02 452.646 424.265C452.726 424.538 452.806 424.812 452.889 425.094C454.03 429.201 454.304 433.206 454.293 437.444C454.292 438.281 454.3 439.118 454.308 439.954C454.345 449.449 451.963 459.193 445.412 466.378C445.15 466.683 444.887 466.988 444.616 467.302C439.543 473.113 433.319 477.562 426.007 480.098C425.789 480.175 425.572 480.253 425.347 480.333C421.112 481.732 416.771 482.153 412.338 482.115C411.6 482.11 410.862 482.115 410.124 482.122C405.557 482.129 401.139 481.494 396.807 479.996C396.381 479.851 396.381 479.851 395.947 479.703C385.954 476.157 378.252 468.309 373.561 458.899C368.686 448.289 367.389 434.937 371.381 423.826C373.158 419.375 375.209 414.927 378.113 411.094C378.315 410.821 378.517 410.547 378.725 410.266C385.306 401.685 395.325 396.727 405.931 395.251C408.179 394.989 410.437 394.998 412.697 395.017ZM400.221 400.037C399.861 400.196 399.861 400.196 399.494 400.359C391.86 403.815 387.138 410.204 384.209 417.923C383.318 420.376 382.589 422.857 382.014 425.403C381.955 425.653 381.895 425.904 381.834 426.162C379.737 435.213 380.149 444.464 382.664 453.37C382.744 453.658 382.824 453.946 382.906 454.242C384.825 460.972 388.153 466.921 393.068 471.907C393.306 472.149 393.544 472.391 393.788 472.64C396.683 475.395 400.319 477.255 404.122 478.411C404.439 478.527 404.755 478.643 405.081 478.763C412.215 480.767 421.11 478.844 427.531 475.484C429.018 474.623 430.456 473.683 431.757 472.557C431.757 472.343 431.757 472.128 431.757 471.907C431.94 471.836 432.122 471.764 432.31 471.691C436.92 469.013 439.497 462.132 440.861 457.273C444.322 442.871 445.151 425.255 437.244 412.112C433.359 405.942 427.748 401.174 420.703 399.061C420.434 398.978 420.164 398.895 419.886 398.81C417.173 398.044 414.55 397.89 411.742 397.903C411.514 397.903 411.285 397.903 411.05 397.904C407.164 397.924 403.773 398.402 400.221 400.037Z" fill="var(--fill-0, #FBFCFB)"/>
<path id="Vector_7" d="M794.398 396.091C794.653 396.092 794.907 396.092 795.169 396.093C795.571 396.092 795.571 396.092 795.982 396.092C796.888 396.09 797.793 396.091 798.699 396.092C799.346 396.092 799.992 396.091 800.639 396.091C802.4 396.089 804.161 396.09 805.923 396.091C807.761 396.092 809.6 396.091 811.439 396.09C814.527 396.09 817.616 396.091 820.704 396.092C824.281 396.094 827.857 396.093 831.433 396.092C834.498 396.09 837.562 396.09 840.627 396.091C842.46 396.091 844.293 396.091 846.126 396.09C847.849 396.089 849.571 396.09 851.294 396.092C851.928 396.092 852.563 396.092 853.197 396.091C854.059 396.09 854.921 396.092 855.783 396.093C856.164 396.092 856.164 396.092 856.553 396.091C858.276 396.097 858.276 396.097 858.638 396.46C858.668 397.049 858.676 397.639 858.675 398.228C858.675 398.606 858.675 398.983 858.675 399.372C858.673 399.783 858.671 400.194 858.67 400.617C858.669 401.245 858.669 401.245 858.668 401.885C858.667 402.998 858.664 404.112 858.66 405.226C858.657 406.361 858.655 407.497 858.654 408.633C858.65 410.862 858.645 413.092 858.638 415.322C858.101 415.322 857.565 415.322 857.012 415.322C856.947 415.152 856.882 414.982 856.815 414.807C855.332 410.967 853.728 407.256 851.81 403.614C851.652 403.301 851.494 402.988 851.332 402.665C851.195 402.402 851.058 402.138 850.916 401.866C850.804 401.649 850.692 401.432 850.576 401.208C850.064 400.526 849.684 400.347 848.884 400.037C847.824 399.94 847.824 399.94 846.627 399.958C846.29 399.957 846.29 399.957 845.946 399.956C845.2 399.955 844.455 399.958 843.709 399.962C843.184 399.962 842.658 399.963 842.133 399.962C841.027 399.963 839.921 399.966 838.815 399.97C837.422 399.975 836.03 399.977 834.638 399.977C829.661 399.977 824.683 399.992 819.709 400.142C819.212 400.153 819.212 400.153 818.706 400.164C818.258 400.181 818.258 400.181 817.802 400.198C817.547 400.206 817.292 400.214 817.029 400.223C816.16 400.407 815.897 400.598 815.397 401.338C814.999 403.149 815.017 404.981 815.005 406.828C815.002 407.142 814.999 407.457 814.996 407.781C814.985 408.813 814.977 409.846 814.969 410.879C814.962 411.598 814.956 412.316 814.949 413.035C814.931 414.922 814.915 416.808 814.899 418.695C814.883 420.622 814.865 422.549 814.847 424.476C814.812 428.254 814.779 432.032 814.747 435.809C820.988 435.821 827.228 435.824 833.469 435.724C834.209 435.713 834.949 435.704 835.689 435.697C836.792 435.686 837.895 435.669 838.997 435.651C839.324 435.648 839.65 435.646 839.987 435.644C842.005 435.602 844.15 435.49 845.958 434.508C846.606 433.358 846.755 432.232 846.934 430.931C847.048 430.104 847.163 429.277 847.28 428.451C847.36 427.878 847.432 427.305 847.498 426.73C847.723 424.978 848.05 423.833 849.209 422.476C850.083 422.334 850.083 422.334 850.835 422.476C851.16 422.801 851.16 422.801 851.197 423.624C851.195 423.991 851.194 424.358 851.192 424.736C851.19 425.359 851.19 425.359 851.189 425.994C851.187 426.217 851.186 426.441 851.185 426.671C851.18 427.373 851.178 428.075 851.177 428.778C851.172 430.525 851.165 432.273 851.157 434.021C851.15 435.492 851.145 436.962 851.142 438.433C851.14 439.117 851.136 439.801 851.132 440.485C851.126 442.954 851.209 445.393 851.412 447.854C851.506 449.089 851.517 450.303 851.506 451.541C851.503 451.953 851.5 452.364 851.497 452.788C851.491 453.237 851.491 453.237 851.485 453.695C850.949 453.803 850.412 453.91 849.86 454.021C848.876 451.891 848.111 449.797 847.584 447.517C846.607 443.026 846.607 443.026 843.682 439.712C842.124 439.066 840.698 438.972 839.033 438.988C838.77 438.987 838.506 438.987 838.235 438.987C837.369 438.988 836.504 438.993 835.638 438.998C835.036 438.999 834.434 439 833.832 439.001C832.251 439.003 830.67 439.009 829.089 439.017C827.474 439.023 825.859 439.026 824.244 439.03C821.078 439.037 817.913 439.048 814.747 439.061C814.782 443.228 814.819 447.396 814.857 451.563C814.875 453.498 814.892 455.433 814.909 457.369C814.924 459.239 814.941 461.109 814.959 462.98C814.966 463.69 814.972 464.401 814.977 465.112C814.995 467.269 815.021 469.425 815.072 471.582C815.08 471.934 815.08 471.934 815.088 472.293C815.104 472.89 815.131 473.487 815.16 474.085C815.181 474.549 815.181 474.549 815.203 475.022C815.456 476.047 815.885 476.453 816.698 477.11C817.902 477.512 819.018 477.483 820.273 477.483C820.538 477.484 820.803 477.485 821.076 477.486C821.955 477.489 822.834 477.49 823.713 477.49C824.327 477.491 824.941 477.492 825.554 477.493C826.845 477.495 828.135 477.496 829.425 477.496C831.065 477.496 832.706 477.5 834.347 477.506C835.617 477.509 836.887 477.51 838.157 477.51C838.761 477.51 839.365 477.511 839.969 477.514C849.14 477.586 849.14 477.586 856.894 473.143C859.599 469.936 861.149 465.903 862.718 462.059C862.846 461.752 862.973 461.446 863.104 461.129C863.215 460.856 863.326 460.583 863.44 460.301C863.902 459.433 864.379 458.869 865.14 458.248C866.197 458.33 866.197 458.33 867.091 458.574C866.772 460.448 866.411 462.297 865.953 464.143C865.05 468.009 864.736 471.95 864.658 475.912C864.613 477.245 864.434 478.376 863.993 479.639C863.904 479.898 863.815 480.157 863.723 480.423C863.654 480.618 863.586 480.812 863.515 481.013C856.439 481.056 849.364 481.098 842.289 481.14C839.002 481.159 835.715 481.179 832.428 481.199C807.144 481.352 807.144 481.352 798.952 481.366C798.323 481.368 797.694 481.369 797.065 481.372C796.242 481.374 795.419 481.375 794.595 481.375C794.246 481.377 794.246 481.377 793.889 481.379C792.351 481.375 792.351 481.375 791.989 481.013C791.907 480.057 791.907 480.057 791.989 479.061C793.118 478.308 793.819 478.24 795.159 478.074C795.478 478.034 795.478 478.034 795.803 477.992C796.482 477.906 797.161 477.823 797.841 477.74C798.52 477.656 799.199 477.571 799.878 477.485C800.494 477.407 801.111 477.332 801.727 477.256C802.729 477.138 802.729 477.138 803.693 476.785C804.081 475.62 804.063 474.564 804.059 473.352C804.06 473.1 804.06 472.847 804.061 472.587C804.062 471.737 804.061 470.887 804.06 470.037C804.061 469.429 804.061 468.82 804.062 468.212C804.063 466.553 804.063 464.895 804.062 463.237C804.061 461.494 804.062 459.751 804.062 458.008C804.063 455.07 804.062 452.133 804.06 449.196C804.059 445.825 804.059 442.455 804.061 439.084C804.062 436.178 804.063 433.271 804.062 430.364C804.061 428.634 804.061 426.905 804.062 425.175C804.066 418.972 804.067 412.77 803.893 406.57C803.884 406.165 803.874 405.76 803.864 405.343C803.801 403.477 803.726 401.786 803.043 400.037C800.979 398.618 797.578 398.913 795.152 398.859C794.879 398.852 794.606 398.844 794.324 398.836C793.955 398.83 793.955 398.83 793.578 398.824C792.964 398.736 792.964 398.736 792.314 398.086C792.253 397.252 792.253 397.252 792.314 396.46C792.885 395.888 793.637 396.094 794.398 396.091Z" fill="var(--fill-0, #F8FBF9)"/>
<path id="Vector_8" d="M185.126 396.091C185.381 396.092 185.635 396.092 185.897 396.093C186.299 396.092 186.299 396.092 186.71 396.092C187.616 396.09 188.521 396.091 189.427 396.092C190.074 396.092 190.72 396.091 191.367 396.091C193.128 396.089 194.889 396.09 196.651 396.091C198.489 396.092 200.328 396.091 202.167 396.09C205.255 396.09 208.344 396.091 211.432 396.092C215.009 396.094 218.585 396.093 222.161 396.092C225.226 396.09 228.29 396.09 231.355 396.091C233.188 396.091 235.021 396.091 236.854 396.09C238.577 396.089 240.299 396.09 242.022 396.092C242.656 396.092 243.291 396.092 243.925 396.091C244.787 396.09 245.649 396.092 246.511 396.093C246.892 396.092 246.892 396.092 247.281 396.091C249.004 396.097 249.004 396.097 249.366 396.46C249.396 397.049 249.404 397.639 249.403 398.228C249.403 398.606 249.403 398.983 249.403 399.372C249.401 399.783 249.399 400.194 249.398 400.617C249.397 401.245 249.397 401.245 249.396 401.885C249.395 402.998 249.392 404.112 249.388 405.226C249.385 406.361 249.383 407.497 249.382 408.633C249.378 410.862 249.373 413.092 249.366 415.322C248.829 415.322 248.293 415.322 247.74 415.322C247.675 415.152 247.61 414.982 247.543 414.807C246.06 410.967 244.456 407.256 242.538 403.614C242.38 403.301 242.222 402.988 242.06 402.665C241.923 402.402 241.786 402.138 241.644 401.866C241.532 401.649 241.42 401.432 241.304 401.208C240.792 400.526 240.412 400.347 239.612 400.037C238.552 399.94 238.552 399.94 237.355 399.958C237.018 399.957 237.018 399.957 236.674 399.956C235.928 399.955 235.183 399.958 234.437 399.962C233.912 399.962 233.386 399.963 232.861 399.962C231.755 399.963 230.649 399.966 229.543 399.97C228.15 399.975 226.758 399.977 225.366 399.977C220.389 399.977 215.411 399.992 210.437 400.142C209.94 400.153 209.94 400.153 209.434 400.164C208.986 400.181 208.986 400.181 208.53 400.198C208.275 400.206 208.02 400.214 207.757 400.223C206.888 400.407 206.625 400.598 206.125 401.338C205.727 403.149 205.745 404.981 205.733 406.828C205.73 407.142 205.727 407.457 205.723 407.781C205.713 408.813 205.705 409.846 205.697 410.879C205.69 411.598 205.684 412.316 205.677 413.035C205.659 414.922 205.643 416.808 205.627 418.695C205.611 420.622 205.593 422.549 205.575 424.476C205.54 428.254 205.507 432.032 205.475 435.809C211.716 435.821 217.956 435.824 224.197 435.724C224.937 435.713 225.677 435.704 226.417 435.697C227.52 435.686 228.623 435.669 229.725 435.651C230.052 435.648 230.378 435.646 230.715 435.644C232.733 435.602 234.878 435.49 236.686 434.508C237.334 433.358 237.483 432.232 237.662 430.931C237.776 430.104 237.891 429.277 238.008 428.451C238.087 427.878 238.16 427.305 238.226 426.73C238.451 424.978 238.778 423.833 239.937 422.476C240.811 422.334 240.811 422.334 241.563 422.476C241.888 422.801 241.888 422.801 241.925 423.624C241.923 423.991 241.922 424.358 241.92 424.736C241.918 425.359 241.918 425.359 241.917 425.994C241.915 426.217 241.914 426.441 241.913 426.671C241.908 427.373 241.906 428.075 241.905 428.778C241.9 430.525 241.893 432.273 241.885 434.021C241.878 435.492 241.873 436.962 241.87 438.433C241.868 439.117 241.864 439.801 241.86 440.485C241.853 442.954 241.937 445.393 242.14 447.854C242.234 449.089 242.245 450.303 242.234 451.541C242.231 451.953 242.228 452.364 242.225 452.788C242.219 453.237 242.219 453.237 242.213 453.695C241.677 453.803 241.14 453.91 240.588 454.021C239.604 451.891 238.839 449.797 238.312 447.517C237.335 443.026 237.335 443.026 234.41 439.712C232.852 439.066 231.426 438.972 229.761 438.988C229.498 438.987 229.234 438.987 228.963 438.987C228.097 438.988 227.232 438.993 226.366 438.998C225.764 438.999 225.162 439 224.56 439.001C222.979 439.003 221.398 439.009 219.817 439.017C218.202 439.023 216.587 439.026 214.972 439.03C211.806 439.037 208.641 439.048 205.475 439.061C205.51 443.228 205.547 447.396 205.585 451.563C205.603 453.498 205.62 455.433 205.637 457.369C205.652 459.239 205.669 461.109 205.687 462.98C205.694 463.69 205.7 464.401 205.705 465.112C205.723 467.269 205.749 469.425 205.8 471.582C205.808 471.934 205.808 471.934 205.815 472.293C205.832 472.89 205.859 473.487 205.888 474.085C205.909 474.549 205.909 474.549 205.931 475.022C206.184 476.047 206.613 476.453 207.426 477.11C208.63 477.512 209.746 477.483 211.001 477.483C211.266 477.484 211.531 477.485 211.804 477.486C212.683 477.489 213.562 477.49 214.441 477.49C215.055 477.491 215.669 477.492 216.282 477.493C217.572 477.495 218.862 477.496 220.153 477.496C221.793 477.496 223.434 477.5 225.074 477.506C226.345 477.509 227.615 477.51 228.885 477.51C229.489 477.51 230.093 477.511 230.697 477.514C239.868 477.586 239.868 477.586 247.622 473.143C250.327 469.936 251.877 465.903 253.446 462.059C253.574 461.752 253.701 461.446 253.832 461.129C253.943 460.856 254.054 460.583 254.168 460.301C254.63 459.433 255.107 458.869 255.868 458.248C256.925 458.33 256.925 458.33 257.819 458.574C257.5 460.448 257.139 462.297 256.681 464.143C255.778 468.009 255.464 471.95 255.386 475.912C255.341 477.245 255.162 478.376 254.721 479.639C254.632 479.898 254.543 480.157 254.451 480.423C254.382 480.618 254.313 480.812 254.243 481.013C247.167 481.056 240.092 481.098 233.017 481.14C229.73 481.159 226.443 481.179 223.156 481.199C197.872 481.352 197.872 481.352 189.68 481.366C189.051 481.368 188.422 481.369 187.793 481.372C186.969 481.374 186.146 481.375 185.323 481.375C184.974 481.377 184.974 481.377 184.617 481.379C183.079 481.375 183.079 481.375 182.717 481.013C182.635 480.057 182.635 480.057 182.717 479.061C183.846 478.308 184.547 478.24 185.886 478.074C186.206 478.034 186.206 478.034 186.531 477.992C187.21 477.906 187.889 477.823 188.569 477.74C189.248 477.656 189.927 477.571 190.606 477.485C191.222 477.407 191.839 477.332 192.455 477.256C193.457 477.138 193.457 477.138 194.421 476.785C194.809 475.62 194.791 474.564 194.787 473.352C194.788 473.1 194.788 472.847 194.789 472.587C194.79 471.737 194.789 470.887 194.788 470.037C194.788 469.429 194.789 468.82 194.79 468.212C194.791 466.553 194.791 464.895 194.79 463.237C194.789 461.494 194.79 459.751 194.79 458.008C194.791 455.07 194.79 452.133 194.788 449.196C194.787 445.825 194.787 442.455 194.789 439.084C194.79 436.178 194.791 433.271 194.79 430.364C194.789 428.634 194.789 426.905 194.79 425.175C194.794 418.972 194.795 412.77 194.621 406.57C194.611 406.165 194.602 405.76 194.591 405.343C194.529 403.477 194.454 401.786 193.771 400.037C191.707 398.618 188.306 398.913 185.88 398.859C185.607 398.852 185.334 398.844 185.052 398.836C184.683 398.83 184.683 398.83 184.306 398.824C183.692 398.736 183.692 398.736 183.042 398.086C182.981 397.252 182.981 397.252 183.042 396.46C183.613 395.888 184.365 396.094 185.126 396.091Z" fill="var(--fill-0, #F8FBF9)"/>
<path id="Vector_9" d="M540.347 395.484C548.715 395.484 557.084 395.484 565.706 395.484C565.706 396.45 565.706 397.416 565.706 398.411C565.466 398.447 565.226 398.482 564.978 398.519C560.769 399.053 560.769 399.053 556.928 400.687C556.002 402.2 555.833 403.335 555.846 405.095C555.847 405.455 555.847 405.455 555.848 405.822C555.851 406.59 555.861 407.358 555.871 408.126C555.873 408.609 555.875 409.092 555.876 409.575C555.891 412.422 555.971 415.264 556.072 418.11C556.299 424.604 556.339 431.095 556.338 437.593C556.338 439.165 556.342 440.737 556.348 442.309C556.352 443.547 556.352 444.785 556.352 446.023C556.352 446.603 556.354 447.182 556.356 447.761C556.377 452.97 556.195 458.291 554.937 463.37C554.868 463.651 554.798 463.932 554.727 464.221C553.115 470.348 549.664 475.337 544.248 478.736C538.783 481.729 533.106 483.084 526.916 483.066C526.15 483.065 525.385 483.073 524.62 483.081C516.527 483.116 508.696 480.519 502.858 474.765C496.65 468.33 496.027 460.463 496.043 451.924C496.041 451.386 496.039 450.847 496.037 450.308C496.034 449.162 496.032 448.016 496.032 446.87C496.031 445.056 496.025 443.243 496.018 441.429C496.003 436.929 495.992 432.43 495.985 427.931C495.98 424.421 495.973 420.911 495.958 417.401C495.951 415.599 495.949 413.797 495.95 411.995C495.949 410.875 495.944 409.756 495.939 408.637C495.937 408.119 495.937 407.601 495.938 407.084C495.94 406.375 495.936 405.668 495.931 404.959C495.93 404.564 495.93 404.168 495.929 403.761C495.782 402.423 495.444 401.556 494.83 400.362C494.004 399.949 493.391 399.98 492.467 399.957C492.124 399.946 491.782 399.936 491.429 399.924C490.706 399.905 489.984 399.886 489.262 399.869C488.746 399.852 488.746 399.852 488.22 399.835C487.906 399.827 487.592 399.819 487.268 399.81C486.329 399.706 485.608 399.451 484.752 399.061C484.711 397.964 484.711 397.964 484.752 396.785C485.645 395.892 486.159 396.045 487.41 396.031C488.046 396.021 488.046 396.021 488.695 396.011C489.164 396.007 489.632 396.004 490.101 396C490.587 395.994 491.073 395.987 491.559 395.981C492.848 395.964 494.138 395.951 495.428 395.939C496.449 395.929 497.471 395.916 498.492 395.903C504.966 395.82 511.439 395.792 517.914 395.809C517.914 396.882 517.914 397.956 517.914 399.061C517.132 399.452 516.611 399.437 515.738 399.455C515.277 399.469 515.277 399.469 514.807 399.483C514.164 399.5 513.522 399.514 512.879 399.526C510.92 399.59 508.933 399.713 507.185 400.687C506.174 403.721 506.486 407.324 506.487 410.489C506.486 410.932 506.485 411.376 506.484 411.819C506.481 413.013 506.48 414.207 506.48 415.401C506.48 416.153 506.479 416.906 506.478 417.658C506.475 420.303 506.474 422.947 506.474 425.592C506.475 428.024 506.471 430.455 506.466 432.887C506.462 434.999 506.46 437.111 506.46 439.222C506.46 440.473 506.459 441.723 506.456 442.973C506.443 448.001 506.486 453.028 506.711 458.051C506.731 458.529 506.749 459.008 506.764 459.487C506.918 464.283 508.189 469.34 511.688 472.833C516.296 476.76 522.026 477.951 527.911 477.882C528.141 477.881 528.37 477.88 528.607 477.878C531.952 477.854 535.168 477.743 538.396 476.785C538.762 476.678 539.128 476.571 539.505 476.461C543.836 474.997 547.48 472.106 549.622 468.036C550.024 467.166 550.398 466.294 550.751 465.403C550.862 465.16 550.973 464.916 551.087 464.666C551.526 463.422 551.711 462.171 551.909 460.87C551.95 460.621 551.991 460.372 552.033 460.115C552.63 456.282 552.753 452.417 552.767 448.543C552.77 448.12 552.772 447.698 552.774 447.262C552.78 445.883 552.782 444.505 552.783 443.126C552.783 442.89 552.783 442.654 552.784 442.41C552.792 435.017 552.625 427.645 552.254 420.26C552.234 419.847 552.213 419.434 552.192 419.007C552.058 416.368 551.901 413.731 551.726 411.094C551.704 410.747 551.683 410.4 551.66 410.042C551.596 409.056 551.524 408.071 551.449 407.086C551.422 406.655 551.422 406.655 551.395 406.216C551.24 404.375 550.83 403.19 549.775 401.663C549.052 401.096 549.052 401.096 548.231 400.769C547.944 400.641 547.658 400.513 547.362 400.381C547.086 400.268 546.809 400.154 546.524 400.037C546.301 399.94 546.078 399.843 545.849 399.743C544.372 399.14 542.896 398.835 541.324 398.582C541.001 398.498 541.001 398.498 540.672 398.411C540.347 397.76 540.347 397.76 540.347 395.484Z" fill="var(--fill-0, #F8FBF9)"/>
<path id="Vector_10" d="M922.268 393.43C922.946 393.431 923.624 393.424 924.302 393.415C929.868 393.389 935.269 394.737 939.592 398.411C940.009 399.205 940.009 399.205 940.243 400.037C940.309 400.27 940.375 400.504 940.443 400.745C940.634 402.154 940.615 403.555 940.608 404.976C940.607 405.29 940.606 405.604 940.605 405.928C940.59 408.004 940.544 410.077 940.446 412.151C940.436 412.397 940.426 412.642 940.416 412.895C940.32 414.593 940.32 414.593 939.592 415.322C939.163 415.322 938.734 415.322 938.292 415.322C938.161 414.778 938.161 414.778 938.028 414.224C936.645 408.743 934.628 403.119 929.725 399.886C928.403 399.12 927.06 398.565 925.612 398.086C925.217 397.952 924.821 397.817 924.413 397.679C919.851 396.654 915.247 397.633 911.307 400.037C908.212 402.18 906.359 405.227 905.595 408.889C905.064 412.321 905.761 415.389 907.731 418.248C908.991 419.897 910.352 421.142 912.059 422.313C912.294 422.477 912.529 422.64 912.771 422.809C916.798 425.562 921.052 427.975 925.264 430.43C933.88 435.459 942.787 440.691 945.587 450.952C947.303 458.001 945.839 465.53 942.186 471.719C938.648 477.388 933.681 480.936 927.162 482.486C924.44 483.059 921.735 483.093 918.968 483.086C918.724 483.086 918.479 483.085 918.228 483.085C911.134 483.062 902.985 481.909 897.307 477.273C896.177 475.702 896.54 473.735 896.677 471.907C896.698 471.613 896.72 471.319 896.742 471.017C896.846 469.645 896.955 468.274 897.072 466.903C897.284 464.436 897.439 461.972 897.512 459.496C897.561 458.283 897.63 457.331 898.302 456.297C899.075 456.236 899.075 456.236 899.928 456.297C900.695 457.448 900.795 458.459 900.985 459.793C901.698 464.195 903.236 467.792 906.105 471.256C906.322 471.534 906.539 471.811 906.762 472.096C909.547 475.461 913.451 478.05 917.809 478.736C923.452 479.239 928.211 478.444 932.802 474.963C935.935 472.2 937.758 467.724 938.046 463.629C938.214 458.72 936.621 454.734 933.293 451.114C929.341 447.395 924.413 444.713 919.76 441.988C910.785 436.731 902.265 431.466 898.627 421.175C897.318 415.579 898.111 409.396 901.004 404.456C904.585 398.971 909.568 395.33 915.972 393.83C918.058 393.428 920.151 393.424 922.268 393.43Z" fill="var(--fill-0, #FBFCFB)"/>
<path id="Vector_11" d="M312.996 393.43C313.674 393.431 314.352 393.424 315.03 393.415C320.596 393.389 325.997 394.737 330.32 398.411C330.737 399.205 330.737 399.205 330.971 400.037C331.037 400.27 331.103 400.504 331.171 400.745C331.362 402.154 331.343 403.555 331.336 404.976C331.335 405.29 331.334 405.604 331.333 405.928C331.318 408.004 331.272 410.077 331.174 412.151C331.164 412.397 331.154 412.642 331.143 412.895C331.048 414.593 331.048 414.593 330.32 415.322C329.891 415.322 329.462 415.322 329.02 415.322C328.889 414.778 328.889 414.778 328.756 414.224C327.373 408.743 325.356 403.119 320.453 399.886C319.131 399.12 317.788 398.565 316.34 398.086C315.945 397.952 315.549 397.817 315.141 397.679C310.579 396.654 305.975 397.633 302.035 400.037C298.94 402.18 297.087 405.227 296.323 408.889C295.792 412.321 296.489 415.389 298.459 418.248C299.719 419.897 301.08 421.142 302.787 422.313C303.022 422.477 303.257 422.64 303.499 422.809C307.526 425.562 311.78 427.975 315.992 430.43C324.608 435.459 333.515 440.691 336.315 450.952C338.031 458.001 336.567 465.53 332.914 471.719C329.376 477.388 324.409 480.936 317.89 482.486C315.168 483.059 312.463 483.093 309.696 483.086C309.452 483.086 309.207 483.085 308.956 483.085C301.862 483.062 293.713 481.909 288.035 477.273C286.905 475.702 287.268 473.735 287.405 471.907C287.426 471.613 287.448 471.319 287.47 471.017C287.574 469.645 287.683 468.274 287.8 466.903C288.012 464.436 288.167 461.972 288.24 459.496C288.289 458.283 288.358 457.331 289.03 456.297C289.802 456.236 289.802 456.236 290.656 456.297C291.423 457.448 291.523 458.459 291.713 459.793C292.426 464.195 293.964 467.792 296.833 471.256C297.05 471.534 297.267 471.811 297.49 472.096C300.275 475.461 304.178 478.05 308.537 478.736C314.18 479.239 318.939 478.444 323.53 474.963C326.663 472.2 328.486 467.724 328.774 463.629C328.942 458.72 327.349 454.734 324.021 451.114C320.069 447.395 315.141 444.713 310.488 441.988C301.512 436.731 292.993 431.466 289.355 421.175C288.046 415.579 288.839 409.396 291.732 404.456C295.313 398.971 300.296 395.33 306.7 393.83C308.786 393.428 310.879 393.424 312.996 393.43Z" fill="var(--fill-0, #FBFCFB)"/>
<path id="Vector_12" d="M737.08 394.038C737.997 394.041 738.913 394.032 739.829 394.021C744.964 394.001 749.857 394.724 754.661 396.602C754.906 396.691 755.151 396.78 755.403 396.872C757.066 397.5 758.8 398.176 760.127 399.387C760.523 400.469 760.523 400.469 760.615 401.744C760.633 401.976 760.652 402.207 760.672 402.445C760.915 405.966 760.832 409.519 760.777 413.045C759.919 413.045 759.061 413.045 758.176 413.045C758.1 412.873 758.023 412.701 757.944 412.524C755.93 407.941 755.93 407.941 752.974 403.939C752.734 403.649 752.734 403.649 752.488 403.354C749.49 399.981 744.662 398.074 740.295 397.435C738.873 397.358 737.451 397.36 736.028 397.354C735.462 397.344 735.462 397.344 734.885 397.334C731.228 397.317 728.038 397.977 724.831 399.752C724.597 399.88 724.362 400.007 724.12 400.138C722.054 401.294 720.251 402.658 718.512 404.265C718.283 404.467 718.055 404.67 717.82 404.878C714.437 408.036 712.261 412.127 710.384 416.297C710.293 416.496 710.202 416.695 710.108 416.899C704.109 430.318 704.713 448.836 709.734 462.476C712.126 468.343 715.572 473.261 721.113 476.46C721.415 476.635 721.716 476.81 722.027 476.991C728.376 480.425 736.281 480.76 743.187 478.839C751.822 476.168 756.308 470.914 760.446 463.088C760.665 462.668 760.884 462.247 761.102 461.826C761.639 461.933 762.175 462.04 762.728 462.151C762.826 465.411 762.18 468.427 761.486 471.6C761.338 472.293 761.2 472.987 761.072 473.684C760.031 479.303 760.031 479.303 758.592 480.505C757.115 481.285 755.593 481.482 753.95 481.663C753.434 481.778 752.919 481.896 752.407 482.024C752.011 482.092 751.615 482.161 751.207 482.232C750.805 482.304 750.403 482.376 749.989 482.451C747.377 482.846 744.828 483.018 742.186 483.03C741.843 483.032 741.5 483.034 741.147 483.035C740.424 483.038 739.7 483.041 738.977 483.042C737.89 483.045 736.803 483.055 735.716 483.065C730.433 483.092 725.298 482.865 720.341 480.85C720.06 480.739 719.78 480.629 719.492 480.514C714.903 478.639 710.434 476.3 706.808 472.882C706.65 472.738 706.493 472.594 706.331 472.445C699.276 465.931 695.442 456.942 694.128 447.517C694.098 447.305 694.068 447.094 694.036 446.877C692.29 433.294 695.734 420.491 703.907 409.59C710.513 401.072 719.299 395.72 730.026 394.275C732.369 394.019 734.726 394.027 737.08 394.038Z" fill="var(--fill-0, #FAFCFB)"/>
<path id="Vector_13" d="M313.237 121.929C314.273 121.927 315.309 121.924 316.345 121.92C318.009 121.915 319.673 121.913 321.337 121.914C321.954 121.913 322.571 121.912 323.187 121.909C334.872 121.865 347.119 122.833 355.855 131.419C361.898 137.679 364.696 146.029 364.674 154.61C364.679 155.006 364.684 155.401 364.69 155.809C364.694 164.289 361.083 171.531 355.264 177.499C352.568 180.063 349.491 182.075 346.282 183.936C346.058 184.066 345.833 184.197 345.603 184.331C345.172 184.58 344.739 184.824 344.304 185.064C343.223 185.656 343.223 185.656 342.517 186.624C342.44 187.686 342.823 188.33 343.291 189.281C343.477 189.664 343.664 190.047 343.856 190.441C344.062 190.855 344.269 191.269 344.476 191.683C344.686 192.11 344.896 192.538 345.106 192.965C347.715 198.257 350.468 203.469 353.31 208.639C354.608 211.01 355.856 213.406 357.094 215.809C365.98 235.265 365.98 235.265 382.129 247.842C384.132 248.412 386.155 248.897 388.183 249.371C389.442 249.666 390.664 250.001 391.882 250.443C391.891 250.979 391.897 251.514 391.902 252.049C391.908 252.496 391.908 252.496 391.914 252.952C391.882 253.695 391.882 253.695 391.557 254.021C390.528 254.052 389.505 254.061 388.476 254.058C387.991 254.058 387.991 254.058 387.496 254.058C386.421 254.058 385.346 254.055 384.271 254.052C383.528 254.052 382.785 254.051 382.042 254.051C380.082 254.05 378.122 254.047 376.162 254.043C374.164 254.04 372.165 254.038 370.167 254.037C366.243 254.033 362.319 254.028 358.395 254.021C358.194 253.617 358.194 253.617 357.989 253.205C356.709 250.631 355.428 248.059 354.146 245.487C353.487 244.166 352.829 242.844 352.172 241.522C348.77 234.628 348.77 234.628 345.146 227.849C343.21 224.379 341.459 220.818 339.695 217.257C339.542 216.947 339.388 216.637 339.23 216.318C337.784 213.401 336.34 210.484 334.903 207.563C334.109 205.951 333.312 204.34 332.511 202.731C332.211 202.124 331.912 201.517 331.614 200.909C328.827 195.069 328.827 195.069 324.257 190.606C322.401 190.044 320.703 189.85 318.771 189.821C318.508 189.815 318.244 189.808 317.973 189.802C317.142 189.783 316.311 189.767 315.479 189.752C314.912 189.74 314.344 189.727 313.776 189.714C312.393 189.683 311.01 189.656 309.627 189.63C309.597 196.268 309.574 202.906 309.56 209.543C309.553 212.625 309.544 215.708 309.529 218.79C309.516 221.477 309.508 224.165 309.505 226.852C309.503 228.275 309.499 229.697 309.49 231.119C309.481 232.459 309.478 233.8 309.48 235.141C309.48 235.631 309.477 236.121 309.472 236.61C309.441 239.833 309.547 242.961 311.72 245.525C314.898 247.732 319.288 248.576 322.994 249.467C323.215 249.521 323.436 249.576 323.664 249.632C324.285 249.785 324.908 249.931 325.531 250.078C326.619 250.475 326.978 250.729 327.509 251.744C327.57 252.801 327.57 252.801 327.509 253.695C326.396 254.066 325.522 254.073 324.349 254.087C324.126 254.091 323.904 254.094 323.675 254.097C322.933 254.108 322.19 254.116 321.448 254.124C320.922 254.13 320.396 254.137 319.87 254.144C318.456 254.162 317.041 254.178 315.627 254.194C314.75 254.204 313.873 254.214 312.996 254.225C304.776 254.325 296.558 254.381 288.338 254.334C287.996 254.332 287.654 254.331 287.302 254.33C286.682 254.327 286.063 254.323 285.443 254.317C283.678 254.311 281.948 254.415 280.191 254.596C279.046 254.703 277.92 254.714 276.77 254.712C276.357 254.713 275.944 254.713 275.519 254.714C274.514 254.671 274.514 254.671 273.864 254.346C273.755 253.178 273.767 252.555 274.382 251.538C275.386 250.551 275.976 250.513 277.367 250.391C277.805 250.347 278.244 250.301 278.682 250.255C278.907 250.234 279.132 250.212 279.364 250.19C281.293 249.986 283.207 249.636 285.121 249.326C285.336 249.292 285.551 249.259 285.773 249.225C286.407 249.127 287.041 249.024 287.674 248.92C288.228 248.832 288.228 248.832 288.792 248.742C290.144 248.405 291.039 247.973 291.94 246.895C292.628 245.378 292.588 243.908 292.63 242.259C292.643 241.891 292.656 241.524 292.669 241.146C292.71 239.925 292.744 238.704 292.777 237.482C292.796 236.836 292.816 236.189 292.835 235.542C293.11 226.416 293.143 217.29 293.134 208.161C293.133 206.539 293.132 204.918 293.133 203.296C293.133 203.061 293.133 202.825 293.133 202.582C293.134 202.102 293.134 201.622 293.134 201.143C293.136 196.719 293.134 192.296 293.13 187.873C293.127 184.097 293.128 180.321 293.131 176.546C293.134 172.111 293.136 167.677 293.134 163.242C293.133 162.769 293.133 162.296 293.133 161.823C293.133 161.59 293.133 161.357 293.133 161.118C293.132 159.496 293.133 157.874 293.135 156.252C293.137 154.073 293.135 151.894 293.132 149.715C293.131 148.921 293.131 148.127 293.132 147.332C293.138 143.837 293.134 140.356 292.777 136.876C292.754 136.645 292.732 136.414 292.709 136.175C292.492 134.373 292.002 132.96 290.689 131.683C288.87 130.484 287.084 129.96 284.947 129.63C284.71 129.591 284.472 129.551 284.228 129.51C283.222 129.343 282.216 129.182 281.21 129.021C280.471 128.901 279.732 128.778 278.994 128.655C278.769 128.62 278.544 128.586 278.313 128.55C276.898 128.313 275.748 127.925 274.514 127.191C274.105 126.372 274.216 125.938 274.331 125.037C274.365 124.771 274.398 124.505 274.432 124.232C274.459 124.028 274.486 123.824 274.514 123.614C278.633 121.68 284.016 122.221 288.494 122.13C288.982 122.12 288.982 122.12 289.48 122.11C297.398 121.956 305.318 121.941 313.237 121.929Z" fill="var(--fill-0, #FCFDFD)"/>
<path id="Vector_14" d="M765.321 122.273C765.701 122.272 766.081 122.271 766.472 122.27C767.354 122.301 768.168 122.363 769.037 122.476C770.763 122.673 772.472 122.685 774.207 122.682C774.707 122.682 774.707 122.682 775.217 122.683C775.917 122.683 776.618 122.682 777.319 122.681C778.381 122.679 779.442 122.681 780.503 122.683C781.189 122.683 781.874 122.682 782.559 122.682C782.871 122.682 783.183 122.683 783.505 122.684C785.437 122.677 787.341 122.57 789.265 122.388C790.638 122.272 792.006 122.254 793.383 122.252C793.647 122.248 793.91 122.244 794.181 122.24C795.566 122.237 796.734 122.236 797.955 122.964C799.033 124.151 799.659 125.376 800.232 126.855C800.322 127.079 800.411 127.302 800.503 127.533C800.698 128.021 800.892 128.51 801.084 128.999C801.618 130.353 802.161 131.705 802.702 133.057C802.817 133.344 802.932 133.632 803.05 133.928C804.406 137.317 805.804 140.689 807.201 144.061C807.729 145.338 808.257 146.614 808.784 147.89C808.914 148.203 809.043 148.515 809.176 148.838C810.427 151.864 811.67 154.893 812.911 157.923C814.655 162.183 816.408 166.439 818.167 170.693C820.946 177.414 823.706 184.142 826.455 190.876C827.294 192.931 828.136 194.985 828.98 197.039C832.673 206.038 836.297 215.065 839.895 224.102C840.654 223.117 841.198 222.182 841.708 221.046C841.868 220.688 842.029 220.331 842.194 219.963C842.455 219.376 842.455 219.376 842.72 218.777C842.811 218.572 842.902 218.368 842.996 218.157C848.544 205.675 853.802 193.027 858.129 180.065C858.483 179.009 858.85 177.975 859.297 176.955C859.667 176.11 859.939 175.316 860.175 174.427C860.516 173.238 860.944 172.152 861.475 171.035C862.27 169.311 862.908 167.569 863.507 165.769C864.515 162.803 865.596 159.872 866.718 156.948C868.263 152.91 869.727 148.85 871.107 144.752C871.174 144.552 871.242 144.352 871.311 144.145C871.902 142.385 872.47 140.619 873.035 138.85C873.534 137.289 874.041 135.731 874.549 134.173C874.815 133.351 875.079 132.528 875.34 131.705C875.72 130.511 876.108 129.321 876.498 128.13C876.613 127.762 876.728 127.394 876.846 127.014C877.787 124.188 877.787 124.188 878.923 123.381C880.129 122.858 881.177 122.808 882.466 122.862C882.786 122.867 882.786 122.867 883.114 122.872C884.611 122.904 886.1 123.014 887.593 123.125C890.404 123.32 893.211 123.361 896.028 123.392C896.56 123.399 897.093 123.405 897.625 123.412C899.009 123.43 900.393 123.446 901.776 123.462C903.195 123.479 904.614 123.497 906.033 123.514C908.805 123.549 911.576 123.582 914.348 123.614C914.374 124.244 914.393 124.874 914.408 125.504C914.42 125.855 914.431 126.206 914.443 126.568C914.348 127.517 914.348 127.517 913.905 128.108C911.306 129.985 907.665 130.07 904.594 130.301C899.102 130.555 899.102 130.555 894.19 132.72C891.664 138.165 892.802 146.116 892.826 152.016C892.829 153.028 892.829 154.04 892.829 155.051C892.83 161.498 892.914 167.941 893.025 174.386C893.172 182.948 893.254 191.51 893.291 200.073C893.295 200.979 893.299 201.885 893.303 202.791C893.328 208.337 893.351 213.883 893.37 219.429C893.379 222.211 893.391 224.992 893.404 227.773C893.413 229.509 893.419 231.245 893.423 232.981C893.426 234.051 893.431 235.12 893.438 236.19C893.44 236.682 893.441 237.175 893.442 237.667C893.232 241.987 893.232 241.987 894.943 245.699C898.358 247.722 902.055 248.443 905.895 249.26C907.549 249.612 909.201 249.975 910.852 250.342C911.16 250.408 911.468 250.473 911.785 250.541C912.069 250.604 912.353 250.667 912.646 250.732C912.896 250.786 913.147 250.841 913.405 250.897C914.022 251.094 914.022 251.094 914.673 251.744C914.76 252.619 914.701 253.465 914.673 254.346C912.319 254.354 909.964 254.36 907.61 254.364C906.81 254.365 906.01 254.368 905.21 254.37C904.057 254.374 902.904 254.376 901.75 254.378C901.396 254.379 901.041 254.381 900.676 254.383C899.213 254.383 897.78 254.37 896.328 254.185C894.379 253.939 892.427 253.968 890.465 253.966C889.833 253.964 889.833 253.964 889.187 253.963C888.294 253.961 887.401 253.96 886.508 253.96C885.612 253.96 884.717 253.958 883.821 253.954C878.363 253.927 872.954 254.071 867.511 254.525C865.143 254.719 862.751 254.824 860.378 254.671C860.053 254.346 860.053 254.346 860.021 253.46C860.025 253.102 860.029 252.744 860.032 252.374C860.035 252.015 860.038 251.656 860.041 251.286C860.045 251.008 860.049 250.73 860.053 250.443C862.099 249.418 863.997 248.883 866.25 248.533C869.851 247.912 873.567 246.996 876.634 244.915C878.828 240.525 877.652 232.688 877.634 227.919C877.629 226.794 877.627 225.67 877.626 224.546C877.621 221.75 877.614 218.954 877.606 216.158C877.598 213.415 877.592 210.672 877.589 207.928C877.588 207.543 877.588 207.158 877.587 206.761C877.583 201.71 877.642 196.668 877.792 191.62C877.981 185.204 877.984 178.79 877.977 172.373C877.975 170.687 877.976 169.002 877.978 167.316C878.127 155.198 878.127 155.198 877.284 143.126C875.751 146.695 874.279 150.285 872.854 153.899C872.71 154.262 872.566 154.625 872.418 155C871.632 157.005 870.886 159.019 870.178 161.052C869.182 163.908 868.098 166.726 866.999 169.544C866.395 171.094 865.794 172.645 865.194 174.196C865.005 174.684 865.005 174.684 864.812 175.182C863.031 179.787 861.286 184.406 859.539 189.024C858.504 191.758 857.47 194.49 856.374 197.2C855.617 199.077 854.929 200.966 854.282 202.882C852.316 208.61 850.22 214.288 847.944 219.899C847.197 221.751 846.513 223.617 845.861 225.505C845.182 227.463 844.451 229.4 843.716 231.338C841.677 236.735 839.819 242.196 838.003 247.672C837.928 247.898 837.853 248.124 837.776 248.357C837.411 249.455 837.049 250.554 836.688 251.653C836.559 252.044 836.43 252.434 836.297 252.837C836.184 253.184 836.07 253.531 835.953 253.888C835.669 254.671 835.669 254.671 835.344 254.996C834.802 255.01 834.26 255.01 833.718 254.996C832.619 252.479 831.704 249.969 830.934 247.334C829.309 241.921 827.454 236.59 825.59 231.256C825.478 230.935 825.478 230.935 825.363 230.607C824.263 227.457 823.143 224.315 822.014 221.175C821.88 220.802 821.88 220.802 821.743 220.422C818.733 212.047 815.581 203.74 812.26 195.484C812.082 195.04 811.903 194.595 811.725 194.151C806.921 182.197 801.996 170.283 796.838 158.477C795.98 156.511 795.143 154.537 794.318 152.557C792.835 149.016 791.25 145.548 789.431 142.166C789.252 141.833 789.252 141.833 789.071 141.493C788.781 140.953 788.491 140.414 788.202 139.874C787.549 147.877 787.085 155.885 786.729 163.907C786.698 164.597 786.668 165.287 786.637 165.977C785.053 200.52 785.053 200.52 786.048 235.057C786.078 235.513 786.078 235.513 786.11 235.978C786.277 242.144 786.277 242.144 788.852 247.517C791.977 249.861 797.623 249.328 801.421 249.502C802.144 249.536 802.868 249.573 803.591 249.61C804.016 249.63 804.44 249.65 804.877 249.67C806.112 249.796 807.189 250.031 808.359 250.443C809.317 251.801 808.9 253.117 808.684 254.671C803.884 254.703 799.094 254.716 794.297 254.508C789.719 254.319 785.143 254.309 780.561 254.305C780.198 254.304 779.836 254.304 779.462 254.303C774.397 254.29 774.397 254.29 769.344 254.599C767.363 254.746 765.376 254.704 763.391 254.691C762.956 254.69 762.521 254.688 762.086 254.687C761.038 254.683 759.989 254.678 758.941 254.671C758.941 253.705 758.941 252.739 758.941 251.744C759.535 251.429 760.132 251.118 760.729 250.809C761.061 250.636 761.393 250.462 761.735 250.283C764.621 249.006 767.683 248.866 770.79 248.568C772.841 248.352 774.634 248.101 776.497 247.191C777.028 246.235 777.254 245.632 777.473 244.59C777.531 244.322 777.589 244.053 777.649 243.777C778.923 236.726 778.925 229.383 779.235 222.24C779.289 220.997 779.345 219.755 779.4 218.512C779.495 216.384 779.59 214.256 779.684 212.128C779.919 206.793 780.158 201.458 780.398 196.123C780.437 195.265 780.475 194.408 780.514 193.55C780.865 185.74 781.232 177.931 781.62 170.122C781.643 169.663 781.666 169.205 781.689 168.746C781.901 164.483 782.115 160.22 782.333 155.957C782.772 147.345 783.155 138.74 783.325 130.118C783.106 130.097 782.887 130.076 782.662 130.055C782.228 130.013 782.228 130.013 781.785 129.97C781.357 129.928 781.357 129.928 780.92 129.886C779.712 129.753 778.525 129.542 777.33 129.326C774.914 128.903 772.5 128.607 770.058 128.377C768.162 128.197 768.162 128.197 767.378 127.999C766.121 127.688 764.781 127.764 763.491 127.735C762.517 127.517 762.517 127.517 761.905 126.762C761.441 125.648 761.431 124.81 761.542 123.614C762.564 122.081 763.592 122.269 765.321 122.273Z" fill="var(--fill-0, #FBFCFC)"/>
<path id="Vector_15" d="M489.046 116.423C489.303 116.424 489.56 116.426 489.825 116.428C490.242 116.43 490.242 116.43 490.667 116.431C490.959 116.434 491.25 116.437 491.551 116.439C491.844 116.441 492.138 116.442 492.44 116.444C493.166 116.448 493.893 116.453 494.62 116.46C496.198 119.834 497.611 123.251 498.907 126.744C499.104 127.272 499.104 127.272 499.304 127.81C500.088 129.946 500.796 132.099 501.465 134.273C502.263 136.857 503.146 139.411 504.028 141.968C504.356 142.923 504.684 143.878 505.012 144.832C505.099 145.085 505.186 145.338 505.275 145.599C508.497 154.982 511.689 164.375 514.829 173.786C515.109 174.627 515.39 175.469 515.671 176.311C516.558 178.968 517.445 181.625 518.331 184.283C519.34 187.311 520.351 190.338 521.363 193.365C522.157 195.739 522.949 198.114 523.741 200.489C524.209 201.894 524.678 203.299 525.148 204.703C525.588 206.017 526.026 207.332 526.463 208.647C526.622 209.124 526.781 209.6 526.941 210.076C527.874 212.858 528.73 215.65 529.494 218.483C530.153 220.924 530.951 223.315 531.764 225.708C532 226.406 532.236 227.104 532.471 227.802C532.629 228.271 532.788 228.739 532.946 229.208C533.455 230.715 533.95 232.227 534.436 233.741C535.656 237.521 536.883 241.122 538.836 244.59C538.919 244.811 539.003 245.032 539.089 245.26C539.441 245.953 539.441 245.953 540.205 246.192C540.497 246.257 540.789 246.322 541.09 246.39C542.975 246.845 544.811 247.395 546.659 247.984C547.105 248.124 547.105 248.124 547.561 248.267C549.067 248.745 550.562 249.251 552.042 249.804C552.308 249.903 552.574 250.002 552.848 250.104C553.466 250.443 553.466 250.443 553.791 251.419C553.833 252.289 553.805 253.149 553.791 254.021C542.529 254.059 531.269 254.033 520.007 253.889C519.188 253.878 518.37 253.869 517.551 253.859C516.253 253.844 514.955 253.827 513.657 253.808C513.18 253.802 512.703 253.796 512.226 253.79C505.373 253.708 505.373 253.708 504.048 253.045C503.974 252.059 503.934 251.103 504.048 250.118C505.359 248.671 507.183 248.721 509.019 248.595C509.565 248.555 510.112 248.514 510.658 248.474C511.516 248.412 512.374 248.35 513.233 248.29C514.063 248.231 514.894 248.169 515.724 248.107C515.976 248.09 516.228 248.073 516.488 248.056C519.1 247.878 519.1 247.878 521.604 247.191C523.162 242.517 520.446 236.791 519 232.363C518.35 230.36 517.76 228.361 517.256 226.317C516.551 223.503 515.642 220.769 514.712 218.023C513.296 213.842 511.96 209.639 510.644 205.426C509.568 201.99 508.448 198.571 507.299 195.159C505.11 194.648 503.056 194.415 500.811 194.429C500.505 194.429 500.2 194.428 499.885 194.428C498.886 194.426 497.886 194.43 496.886 194.434C496.185 194.434 495.484 194.434 494.783 194.434C493.317 194.434 491.852 194.437 490.386 194.442C488.516 194.447 486.645 194.448 484.774 194.448C483.328 194.448 481.881 194.45 480.434 194.452C479.745 194.453 479.055 194.454 478.366 194.454C477.399 194.455 476.432 194.458 475.466 194.461C475.046 194.461 475.046 194.461 474.617 194.461C471.192 194.344 471.192 194.344 467.96 195.159C466.606 198.359 465.833 201.833 464.945 205.181C463.518 210.555 461.92 215.876 460.292 221.192C459.79 222.835 459.301 224.48 458.836 226.134C458.358 227.834 457.832 229.515 457.292 231.195C456.08 234.978 455.015 238.804 453.98 242.639C453.917 242.862 453.855 243.085 453.791 243.316C453.417 245.025 453.641 246.797 453.98 248.492C454.342 248.532 454.705 248.573 455.078 248.614C456.352 248.756 457.626 248.898 458.9 249.04C459.916 249.153 460.932 249.267 461.949 249.38C462.474 249.438 462.999 249.497 463.525 249.556C464.042 249.614 464.56 249.671 465.078 249.729C465.578 249.785 466.078 249.841 466.579 249.899C468.138 250.075 469.693 250.207 471.261 250.268C472.132 250.522 472.388 250.976 472.837 251.744C472.918 252.781 472.918 252.781 472.837 253.695C472.33 254.202 471.841 254.065 471.136 254.068C470.695 254.071 470.695 254.071 470.246 254.074C469.924 254.075 469.601 254.075 469.269 254.075C468.935 254.076 468.6 254.077 468.255 254.079C467.54 254.08 466.824 254.081 466.109 254.081C465.044 254.082 463.979 254.087 462.913 254.094C459.559 254.102 456.253 254.026 452.914 253.694C447.751 253.193 442.572 253.297 437.391 253.326C436.03 253.332 434.67 253.335 433.309 253.339C430.663 253.345 428.016 253.356 425.369 253.37C425.334 252.849 425.309 252.327 425.288 251.805C425.265 251.369 425.265 251.369 425.242 250.925C425.369 250.118 425.369 250.118 425.954 249.536C426.985 248.969 428.009 248.941 429.16 248.88C429.658 248.844 430.156 248.809 430.654 248.774C431.432 248.724 432.211 248.676 432.989 248.628C438.281 248.362 438.281 248.362 442.844 245.891C449.41 238.423 451.88 226.444 455.077 217.171C455.157 216.939 455.238 216.707 455.32 216.468C456.153 214.057 456.945 211.643 457.644 209.19C458.782 205.218 460.195 201.334 461.559 197.435C463.243 192.617 464.909 187.797 466.44 182.927C467.089 180.864 467.781 178.821 468.508 176.785C469.268 174.649 469.949 172.508 470.566 170.327C471.226 168.036 472.019 165.794 472.827 163.552C473.464 161.762 474.031 159.962 474.555 158.137C475.54 154.72 476.7 151.366 477.856 148.004C478.084 147.336 478.313 146.667 478.542 145.998C479.009 144.63 479.478 143.263 479.947 141.895C480.916 139.067 481.882 136.238 482.848 133.408C483.13 132.584 483.412 131.759 483.694 130.935C484.194 129.471 484.693 128.006 485.191 126.541C485.268 126.314 485.346 126.087 485.425 125.853C486.202 123.565 486.958 121.284 487.548 118.939C488.17 116.476 488.17 116.476 489.046 116.423Z" fill="var(--fill-0, #FBFCFB)"/>
<path id="Vector_16" d="M125.082 117.984C127.435 118.836 128.251 121.065 129.349 123.187C130.208 124.821 130.857 125.904 132.438 126.866C136.812 127.97 141.746 127.569 146.22 127.578C146.943 127.581 147.666 127.584 148.389 127.586C149.938 127.592 151.486 127.597 153.035 127.601C155.49 127.608 157.945 127.617 160.4 127.626C163.848 127.639 167.295 127.651 170.742 127.662C170.96 127.663 171.178 127.664 171.403 127.664C172.95 127.669 174.497 127.674 176.044 127.679C177.808 127.685 179.572 127.69 181.335 127.696C181.553 127.697 181.77 127.698 181.994 127.698C185.635 127.71 189.277 127.723 192.918 127.737C195.352 127.746 197.786 127.754 200.22 127.76C201.742 127.765 203.265 127.77 204.787 127.776C205.486 127.779 206.184 127.781 206.883 127.782C211.338 127.792 215.772 127.917 220.22 128.167C220.479 127.761 220.738 127.355 220.996 126.948C221.14 126.722 221.284 126.496 221.432 126.263C222.06 125.202 222.504 124.084 222.963 122.943C223.766 121.05 224.459 119.43 226.072 118.086C227.346 117.913 228.111 118.007 229.323 118.411C229.789 119.532 229.689 120.752 229.69 121.948C229.691 122.282 229.691 122.282 229.692 122.623C229.693 123.364 229.692 124.104 229.691 124.845C229.691 125.37 229.692 125.895 229.692 126.42C229.693 127.528 229.692 128.636 229.69 129.744C229.689 131.127 229.69 132.51 229.691 133.893C229.698 139.288 229.674 144.682 229.542 150.076C229.53 150.572 229.519 151.069 229.509 151.566C229.494 152.25 229.476 152.933 229.456 153.617C229.446 154.003 229.436 154.389 229.426 154.786C229.324 155.8 229.137 156.531 228.673 157.435C227.726 157.909 227.118 157.907 226.072 157.76C224.645 156.123 224.372 154.344 223.979 152.252C222.428 143.938 222.429 143.938 217.628 137.343C215.444 136.032 213.073 135.401 210.566 135.092C210.254 135.052 209.941 135.013 209.62 134.972C204.581 134.412 199.485 134.485 194.423 134.453C193.001 134.443 191.58 134.428 190.158 134.414C187.391 134.386 184.623 134.364 181.856 134.346C181.864 134.633 181.872 134.92 181.88 135.216C182.116 143.828 182.251 152.441 182.356 161.056C182.36 161.351 182.363 161.646 182.367 161.95C182.495 172.479 182.528 183.008 182.515 193.538C182.514 193.893 182.514 194.247 182.513 194.613C182.505 201.149 182.493 207.686 182.477 214.222C182.468 217.893 182.461 221.564 182.458 225.234C182.456 227.286 182.451 229.339 182.443 231.391C182.44 232.653 182.438 233.915 182.438 235.177C182.437 235.758 182.436 236.338 182.433 236.919C182.215 241.742 182.215 241.742 183.766 246.155C186.998 248.418 190.98 249.127 194.759 249.996C195.817 250.243 196.875 250.491 197.932 250.741C198.181 250.799 198.429 250.858 198.685 250.918C200.373 251.321 202.007 251.798 203.638 252.395C203.638 253.575 203.638 254.756 203.638 255.972C198.424 256.006 193.219 255.979 188.006 255.832C178.927 255.578 169.807 255.373 160.733 255.854C157.793 255.998 154.852 256.019 151.909 256.03C151.327 256.032 150.744 256.035 150.162 256.04C149.345 256.045 148.528 256.047 147.712 256.047C147.34 256.05 147.34 256.05 146.962 256.054C145.735 256.049 145.189 256.019 144.142 255.321C144.161 254.854 144.19 254.386 144.223 253.919C144.238 253.659 144.253 253.398 144.269 253.13C144.537 252.134 144.892 251.954 145.767 251.419C146.782 251.13 146.782 251.13 147.976 250.894C148.418 250.804 148.859 250.714 149.301 250.623C149.531 250.577 149.76 250.531 149.997 250.484C156.708 249.191 156.708 249.191 162.936 246.484C163.974 245.891 163.974 245.891 164.624 245.891C164.78 245.376 164.936 244.861 165.092 244.346C165.178 244.059 165.265 243.772 165.354 243.477C165.435 243.2 165.516 242.924 165.6 242.639C165.655 242.46 165.71 242.281 165.766 242.096C165.996 240.994 166.048 239.889 166.105 238.768C166.119 238.499 166.132 238.231 166.146 237.955C166.323 234.049 166.297 230.138 166.293 226.228C166.293 225.306 166.293 224.383 166.294 223.46C166.295 220.998 166.294 218.537 166.292 216.075C166.291 214.278 166.29 212.48 166.29 210.683C166.287 199.366 166.274 188.05 166.064 176.734C165.804 162.607 165.896 148.475 165.925 134.346C163.16 134.366 160.395 134.391 157.631 134.423C156.346 134.437 155.062 134.45 153.777 134.459C142.084 133.973 142.084 133.973 131.99 138.674C127.823 142.948 124.452 147.899 121.19 152.879C118.674 156.676 118.674 156.676 117.157 157.435C116.161 157.476 116.161 157.476 115.206 157.435C114.695 156.924 114.793 156.445 114.767 155.729C114.798 152.65 115.675 149.662 116.385 146.683C116.536 146.037 116.686 145.39 116.837 144.744C117.132 143.474 117.43 142.204 117.729 140.935C118.148 139.163 118.555 137.388 118.96 135.613C119.742 132.188 120.556 128.77 121.383 125.355C121.458 125.042 121.534 124.728 121.612 124.406C121.684 124.107 121.756 123.809 121.831 123.502C122.079 122.445 122.304 121.384 122.52 120.32C122.936 118.78 123.499 118.131 125.082 117.984Z" fill="var(--fill-0, #FCFDFC)"/>
<path id="Vector_17" d="M676.041 122.271C676.31 122.27 676.579 122.269 676.857 122.268C677.149 122.269 677.441 122.269 677.742 122.27C678.044 122.27 678.346 122.27 678.657 122.269C679.297 122.269 679.938 122.27 680.579 122.271C681.55 122.273 682.521 122.271 683.492 122.269C684.115 122.269 684.739 122.27 685.362 122.27C685.793 122.269 685.793 122.269 686.232 122.268C687.915 122.274 689.559 122.381 691.232 122.565C692.167 122.659 693.093 122.681 694.033 122.682C694.393 122.682 694.754 122.683 695.125 122.684C695.498 122.682 695.87 122.681 696.254 122.679C696.84 122.678 696.84 122.678 697.438 122.677C699.749 122.666 702.024 122.578 704.326 122.386C707.353 122.217 710.393 122.291 713.424 122.313C713.424 123.708 713.424 125.104 713.424 126.541C712.047 126.973 710.682 127.292 709.262 127.553C708.745 127.649 708.745 127.649 708.218 127.747C707.507 127.877 706.796 128.004 706.084 128.128C702.219 128.849 702.219 128.849 699.204 131.183C698.086 133.063 697.778 134.777 697.776 136.952C697.775 137.53 697.775 137.53 697.774 138.12C697.776 138.534 697.778 138.949 697.779 139.376C697.78 139.699 697.78 139.699 697.78 140.028C697.79 144.383 697.92 148.73 698.078 153.082C699.546 193.99 699.546 193.99 698.469 213.045C698.443 213.516 698.443 213.516 698.416 213.996C697.644 226.675 694.357 238.534 684.763 247.318C680.253 251.26 674.457 253.728 668.781 255.464C668.545 255.536 668.309 255.609 668.066 255.683C663.234 257.06 658.539 257.431 653.534 257.4C652.551 257.395 651.569 257.4 650.586 257.406C645.184 257.412 639.623 257.136 634.502 255.261C634.083 255.113 634.083 255.113 633.656 254.963C627.917 252.892 622.661 250.124 618.213 245.893C617.509 245.218 617.509 245.218 616.679 244.576C610.65 239.719 607.768 231.851 606.785 224.427C606.193 218.726 606.045 213.04 606.077 207.314C606.079 206.525 606.08 205.735 606.081 204.946C606.085 203.052 606.091 201.157 606.099 199.263C606.107 197.048 606.111 194.833 606.115 192.618C606.121 188.665 606.129 184.712 606.14 180.759C606.14 180.524 606.141 180.289 606.142 180.046C606.149 177.418 606.156 174.79 606.164 172.161C606.167 171.204 606.17 170.247 606.173 169.29C606.174 169.054 606.174 168.818 606.175 168.575C606.187 164.628 606.195 160.681 606.2 156.735C606.203 154.527 606.208 152.319 606.218 150.111C606.228 148.039 606.232 145.967 606.234 143.895C606.235 143.138 606.238 142.38 606.243 141.622C606.574 134.941 606.574 134.941 603.859 129.143C602.752 128.773 601.866 128.76 600.698 128.737C600.257 128.727 599.816 128.716 599.374 128.705C598.684 128.69 597.993 128.675 597.303 128.662C590.587 128.531 590.587 128.531 588.701 127.273C588.099 126.288 588.065 125.724 588.254 124.59C588.861 123.841 589.345 123.394 590.204 122.964C591.08 122.924 591.948 122.903 592.824 122.897C593.097 122.894 593.369 122.891 593.65 122.887C594.561 122.877 595.473 122.869 596.384 122.861C597.027 122.854 597.669 122.847 598.312 122.84C600.035 122.822 601.759 122.806 603.482 122.791C604.546 122.781 605.609 122.771 606.672 122.76C617.548 122.652 628.421 122.591 639.297 122.639C639.747 123.538 639.653 124.28 639.643 125.281C639.64 125.637 639.637 125.993 639.634 126.361C639.628 126.772 639.628 126.772 639.622 127.191C638.065 127.69 636.743 127.925 635.094 127.942C634.464 127.954 634.464 127.954 633.822 127.967C633.167 127.976 632.511 127.984 631.856 127.99C628.865 128.023 626.279 128.114 623.712 129.752C621.854 131.667 622.071 134.645 621.865 137.162C621.844 137.418 621.822 137.674 621.8 137.938C621.293 144.175 621.311 150.397 621.372 156.65C621.386 158.258 621.395 159.866 621.404 161.475C621.42 164.171 621.44 166.868 621.463 169.564C621.492 172.985 621.515 176.406 621.536 179.827C621.555 182.82 621.576 185.813 621.597 188.807C621.601 189.437 621.606 190.067 621.61 190.697C621.655 197.179 621.72 203.658 621.897 210.138C621.903 210.378 621.91 210.618 621.916 210.866C621.988 213.475 622.079 216.084 622.188 218.692C622.197 218.922 622.207 219.152 622.217 219.389C622.413 223.925 622.8 228.258 624.342 232.557C624.47 232.924 624.597 233.291 624.729 233.669C627.293 240.347 631.937 244.006 638.322 246.866C639.818 247.494 641.323 248.017 642.873 248.492C643.279 248.621 643.684 248.75 644.102 248.882C654.382 251.754 668.606 250.468 677.953 245.296C679.868 244.173 681.549 242.829 683.188 241.338C683.417 241.139 683.647 240.94 683.883 240.734C689.087 235.938 690.865 229.149 692.292 222.476C692.407 221.963 692.407 221.963 692.525 221.439C692.87 219.776 693.013 218.115 693.11 216.422C693.13 216.059 693.13 216.059 693.152 215.69C693.308 212.818 693.374 209.946 693.427 207.071C693.432 206.773 693.438 206.474 693.444 206.167C693.486 203.86 693.521 201.552 693.551 199.244C693.556 198.901 693.561 198.558 693.565 198.205C693.719 186.437 693.442 174.718 692.86 162.964C692.843 162.601 692.825 162.238 692.807 161.864C692.473 155.051 692.109 148.235 691.561 141.435C691.524 140.975 691.488 140.514 691.455 140.053C691.216 136.836 690.854 133.12 688.39 130.769C685.268 128.715 681.675 127.763 678.114 126.768C676.866 126.404 675.64 125.985 674.41 125.565C674.303 124.6 674.195 123.634 674.085 122.639C674.822 122.27 675.223 122.272 676.041 122.271Z" fill="var(--fill-0, #FBFCFB)"/>
<path id="Vector_18" d="M336.216 133.876C339.223 136.117 341.636 138.487 343.439 141.826C343.613 142.141 343.786 142.456 343.964 142.781C347.469 149.462 348.751 157.781 346.528 165.098C344.59 170.99 341.599 176.825 335.924 179.84C332.286 181.674 328.57 182.46 324.583 183.126C324.2 183.194 323.817 183.262 323.423 183.332C318.969 184.015 314.445 183.836 309.952 183.777C309.409 182.689 309.552 181.463 309.531 180.266C309.522 179.819 309.522 179.819 309.513 179.364C309.492 178.369 309.475 177.374 309.457 176.378C309.443 175.675 309.43 174.971 309.416 174.267C309.278 166.903 309.192 159.539 309.121 152.175C309.103 150.298 309.082 148.42 309.06 146.543C309.044 145.066 309.03 143.588 309.015 142.11C309.008 141.418 309.001 140.725 308.993 140.032C308.948 136.167 308.986 132.346 309.302 128.492C318.232 126.948 328.716 128.564 336.216 133.876Z" fill="var(--fill-0, #176F38)"/>
<path id="Vector_19" d="M486.817 137.273C487.915 138.278 488.336 139.44 488.849 140.809C488.946 141.065 489.044 141.32 489.144 141.584C490.103 144.129 490.957 146.708 491.799 149.294C492.674 151.959 493.668 154.579 494.666 157.2C495.882 160.399 497.029 163.611 498.095 166.863C498.79 168.98 499.502 171.091 500.228 173.197C500.321 173.469 500.415 173.74 500.511 174.019C500.887 175.112 501.263 176.205 501.642 177.297C504.505 185.555 504.505 185.555 505.023 188.98C503.363 189.254 501.753 189.352 500.07 189.347C499.812 189.348 499.554 189.348 499.289 189.349C498.441 189.35 497.593 189.35 496.745 189.348C496.15 189.349 495.554 189.349 494.958 189.349C493.709 189.35 492.46 189.349 491.211 189.348C489.626 189.346 488.041 189.347 486.456 189.349C485.224 189.35 483.992 189.35 482.76 189.349C482.177 189.349 481.593 189.349 481.01 189.35C477.298 189.353 473.614 189.242 469.91 188.98C469.543 187.724 469.696 186.997 470.065 185.732C470.175 185.35 470.286 184.969 470.399 184.575C470.519 184.171 470.64 183.767 470.764 183.35C470.886 182.931 471.009 182.512 471.131 182.093C471.839 179.686 472.583 177.298 473.402 174.925C473.822 173.666 474.206 172.4 474.585 171.128C477.114 162.659 480.225 154.392 483.302 146.112C483.552 145.439 483.801 144.767 484.05 144.094C484.463 142.978 484.878 141.863 485.293 140.748C485.472 140.266 485.472 140.266 485.654 139.773C485.815 139.342 485.815 139.342 485.98 138.903C486.118 138.533 486.118 138.533 486.258 138.155C486.492 137.598 486.492 137.598 486.817 137.273Z" fill="var(--fill-0, #186F38)"/>
<path id="Vector_20" d="M617.4 399.712C624.48 399.502 630.779 399.666 636.501 404.407C640.038 407.807 641.735 412.398 641.913 417.239C641.994 422.326 640.647 427.036 637.232 430.931C633.855 433.685 629.898 434.439 625.711 435.078C625.444 435.119 625.177 435.161 624.902 435.204C623.172 435.443 621.47 435.506 619.725 435.495C619.501 435.494 619.276 435.493 619.045 435.492C618.497 435.49 617.948 435.487 617.4 435.484C617.35 431.204 617.302 426.924 617.256 422.644C617.235 420.657 617.213 418.669 617.189 416.682C617.167 414.763 617.146 412.844 617.126 410.925C617.118 410.194 617.11 409.463 617.101 408.731C617.088 407.706 617.078 406.68 617.068 405.654C617.062 405.202 617.062 405.202 617.055 404.742C617.041 403.032 617.149 401.404 617.4 399.712Z" fill="var(--fill-0, #176F38)"/>
<path id="Vector_21" d="M106.314 399.712C113.393 399.502 119.693 399.666 125.414 404.407C128.952 407.807 130.648 412.398 130.827 417.239C130.908 422.326 129.561 427.036 126.146 430.931C122.769 433.685 118.812 434.439 114.625 435.078C114.358 435.119 114.091 435.161 113.816 435.204C112.086 435.443 110.384 435.506 108.639 435.495C108.415 435.494 108.19 435.493 107.959 435.492C107.411 435.49 106.862 435.487 106.314 435.484C106.264 431.204 106.215 426.924 106.17 422.644C106.148 420.657 106.126 418.669 106.103 416.682C106.08 414.763 106.059 412.844 106.04 410.925C106.032 410.194 106.024 409.463 106.014 408.731C106.002 407.706 105.991 406.68 105.982 405.654C105.975 405.202 105.975 405.202 105.969 404.742C105.955 403.032 106.063 401.404 106.314 399.712Z" fill="var(--fill-0, #176F38)"/>
</g>
</svg>
