<svg preserveAspectRatio="none" width="100%" height="100%" overflow="visible" style="display: block;" viewBox="0 0 3165 1845" fill="none" xmlns="http://www.w3.org/2000/svg">
<g id="Simplification" clip-path="url(#clip0_0_4)">
<path id="Vector" d="M0 0C1044.45 0 2088.9 0 3165 0C3165 608.85 3165 1217.7 3165 1845C2120.55 1845 1076.1 1845 0 1845C0 1236.15 0 627.3 0 0Z" fill="var(--fill-0, #176F38)"/>
<path id="Vector_2" d="M329 976C1154.66 976 1980.32 976 2831 976C2831 984.91 2831 993.82 2831 1003C2005.34 1003 1179.68 1003 329 1003C329 994.09 329 985.18 329 976Z" fill="var(--fill-0, #FEFEFE)"/>
<path id="Vector_3" d="M900.105 381.819C903.29 381.813 906.476 381.803 909.662 381.792C914.78 381.775 919.899 381.769 925.017 381.771C926.915 381.77 928.812 381.766 930.709 381.758C966.649 381.622 1004.32 384.598 1031.19 411C1049.77 430.251 1058.38 455.926 1058.31 482.313C1058.33 483.529 1058.34 484.745 1058.36 485.998C1058.38 512.074 1047.27 534.345 1029.37 552.695C1021.08 560.581 1011.61 566.768 1001.74 572.488C1001.05 572.89 1000.36 573.291 999.653 573.705C998.329 574.469 996.998 575.22 995.659 575.957C992.336 577.777 992.336 577.777 990.163 580.755C989.926 584.021 991.104 586 992.543 588.926C993.116 590.103 993.689 591.281 994.28 592.494C994.915 593.767 995.551 595.04 996.188 596.313C996.835 597.626 997.481 598.94 998.126 600.254C1006.15 616.527 1014.62 632.552 1023.36 648.451C1027.35 655.743 1031.19 663.11 1035 670.5C1062.33 730.327 1062.33 730.327 1112 769C1118.16 770.752 1124.38 772.246 1130.62 773.703C1134.5 774.611 1138.25 775.638 1142 777C1142.03 778.646 1142.05 780.292 1142.06 781.938C1142.08 783.312 1142.08 783.312 1142.1 784.715C1142 787 1142 787 1141 788C1137.83 788.095 1134.69 788.126 1131.52 788.114C1130.03 788.114 1130.03 788.114 1128.51 788.114C1125.2 788.113 1121.9 788.105 1118.59 788.098C1116.3 788.096 1114.02 788.094 1111.73 788.093C1105.71 788.09 1099.68 788.08 1093.65 788.069C1087.5 788.058 1081.36 788.054 1075.21 788.049C1063.14 788.038 1051.07 788.021 1039 788C1038.38 786.758 1038.38 786.758 1037.75 785.491C1033.82 777.578 1029.88 769.668 1025.93 761.759C1023.91 757.696 1021.88 753.632 1019.86 749.567C1009.39 728.368 1009.39 728.368 998.25 707.523C992.294 696.852 986.907 685.902 981.484 674.953C981.012 674 980.539 673.046 980.052 672.064C975.605 663.096 971.164 654.125 966.743 645.144C964.302 640.185 961.849 635.233 959.388 630.284C958.463 628.419 957.543 626.552 956.628 624.682C948.055 606.722 948.055 606.722 934 593C928.29 591.272 923.068 590.675 917.125 590.586C916.315 590.567 915.505 590.547 914.671 590.527C912.114 590.468 909.557 590.421 907 590.375C905.254 590.337 903.508 590.298 901.762 590.258C897.508 590.162 893.254 590.078 889 590C888.906 610.411 888.836 630.821 888.793 651.232C888.772 660.71 888.744 670.188 888.698 679.665C888.658 687.929 888.633 696.194 888.624 704.458C888.618 708.831 888.606 713.203 888.577 717.576C888.55 721.699 888.542 725.821 888.548 729.944C888.546 731.451 888.539 732.957 888.523 734.463C888.427 744.372 888.753 753.991 895.438 761.875C905.213 768.661 918.714 771.258 930.113 773.996C930.793 774.164 931.474 774.332 932.174 774.506C934.086 774.975 936.002 775.426 937.918 775.875C941.263 777.096 942.369 777.879 944 781C944.188 784.25 944.188 784.25 944 787C940.578 788.141 937.891 788.16 934.28 788.205C933.597 788.215 932.913 788.225 932.209 788.235C929.926 788.267 927.642 788.292 925.359 788.316C923.741 788.337 922.123 788.358 920.505 788.379C916.155 788.435 911.804 788.484 907.454 788.532C904.757 788.562 902.059 788.595 899.362 788.628C874.08 788.936 848.803 789.107 823.519 788.963C822.467 788.959 821.416 788.955 820.333 788.95C818.427 788.942 816.521 788.93 814.614 788.912C809.184 788.891 803.864 789.212 798.462 789.77C794.939 790.099 791.476 790.132 787.938 790.125C786.668 790.128 785.398 790.13 784.09 790.133C781 790 781 790 779 789C778.666 785.409 778.703 783.492 780.592 780.365C783.682 777.33 785.497 777.215 789.773 776.84C791.122 776.702 792.471 776.563 793.819 776.421C794.511 776.355 795.203 776.288 795.915 776.22C801.85 775.594 807.737 774.518 813.625 773.562C814.286 773.46 814.948 773.358 815.629 773.253C817.58 772.951 819.528 772.634 821.477 772.316C823.179 772.045 823.179 772.045 824.917 771.768C829.075 770.732 831.828 769.402 834.597 766.09C836.715 761.425 836.59 756.904 836.721 751.831C836.761 750.703 836.8 749.574 836.841 748.411C836.967 744.656 837.07 740.901 837.171 737.145C837.231 735.156 837.291 733.167 837.352 731.178C838.195 703.117 838.298 675.052 838.271 646.98C838.266 641.995 838.266 637.009 838.268 632.023C838.268 631.298 838.268 630.573 838.269 629.826C838.269 628.351 838.27 626.876 838.271 625.401C838.276 611.799 838.27 598.197 838.259 584.595C838.25 572.985 838.252 561.375 838.261 549.764C838.271 536.129 838.276 522.493 838.27 508.857C838.269 507.401 838.268 505.946 838.268 504.491C838.267 503.776 838.267 503.06 838.267 502.323C838.265 497.336 838.268 492.349 838.273 487.362C838.279 480.661 838.274 473.96 838.263 467.259C838.26 464.817 838.261 462.375 838.265 459.934C838.283 449.186 838.271 438.481 837.171 427.78C837.102 427.069 837.033 426.358 836.962 425.626C836.295 420.082 834.788 415.739 830.75 411.813C825.154 408.124 819.661 406.515 813.09 405.5C812.359 405.378 811.629 405.256 810.876 405.131C807.784 404.615 804.69 404.12 801.595 403.625C799.321 403.258 797.049 402.879 794.777 402.5C794.087 402.394 793.396 402.287 792.684 402.178C788.333 401.449 784.796 400.256 781 398C779.74 395.479 780.081 394.146 780.438 391.375C780.539 390.558 780.641 389.74 780.746 388.898C780.83 388.272 780.914 387.645 781 387C793.668 381.054 810.226 382.715 824 382.438C825.5 382.407 825.5 382.407 827.031 382.375C851.386 381.9 875.746 381.856 900.105 381.819Z" fill="var(--fill-0, #FCFDFD)"/>
<path id="Vector_4" d="M2290.62 382.875C2291.79 382.872 2292.96 382.87 2294.16 382.867C2296.88 382.961 2299.38 383.152 2302.05 383.5C2307.36 384.104 2312.62 384.144 2317.96 384.133C2319.49 384.134 2319.49 384.134 2321.06 384.136C2323.22 384.136 2325.37 384.135 2327.53 384.13C2330.79 384.125 2334.06 384.13 2337.32 384.137C2339.43 384.136 2341.54 384.135 2343.64 384.133C2344.6 384.135 2345.56 384.137 2346.55 384.139C2352.5 384.119 2358.35 383.788 2364.27 383.23C2368.49 382.874 2372.7 382.816 2376.94 382.813C2377.75 382.8 2378.56 382.788 2379.39 382.775C2383.65 382.765 2387.24 382.763 2391 385C2394.31 388.65 2396.24 392.417 2398 396.965C2398.28 397.653 2398.55 398.341 2398.84 399.051C2399.44 400.551 2400.03 402.053 2400.62 403.557C2402.27 407.723 2403.94 411.878 2405.6 416.035C2405.95 416.919 2406.31 417.804 2406.67 418.714C2410.84 429.137 2415.14 439.505 2419.44 449.875C2421.06 453.799 2422.69 457.724 2424.31 461.648C2424.71 462.61 2425.1 463.571 2425.51 464.562C2429.36 473.867 2433.18 483.182 2437 492.5C2442.37 505.599 2447.76 518.687 2453.17 531.768C2461.71 552.435 2470.2 573.124 2478.66 593.829C2481.24 600.149 2483.83 606.466 2486.43 612.781C2497.79 640.454 2508.93 668.21 2520 696C2522.33 692.971 2524.01 690.097 2525.57 686.602C2526.07 685.503 2526.56 684.404 2527.07 683.272C2527.87 681.467 2527.87 681.467 2528.69 679.625C2528.97 678.996 2529.25 678.367 2529.54 677.719C2546.6 639.336 2562.77 600.444 2576.08 560.586C2577.17 557.339 2578.3 554.16 2579.68 551.023C2580.81 548.426 2581.65 545.982 2582.38 543.25C2583.43 539.593 2584.74 536.254 2586.38 532.82C2588.82 527.517 2590.78 522.161 2592.62 516.625C2595.73 507.506 2599.05 498.492 2602.5 489.5C2607.25 477.084 2611.76 464.599 2616 452C2616.21 451.384 2616.42 450.768 2616.63 450.134C2618.45 444.721 2620.19 439.288 2621.93 433.85C2623.47 429.051 2625.03 424.26 2626.59 419.469C2627.41 416.942 2628.22 414.411 2629.02 411.879C2630.19 408.208 2631.38 404.547 2632.58 400.887C2632.94 399.754 2633.29 398.622 2633.65 397.456C2636.55 388.764 2636.55 388.764 2640.04 386.284C2643.75 384.675 2646.97 384.522 2650.94 384.688C2651.92 384.702 2651.92 384.702 2652.93 384.717C2657.54 384.816 2662.12 385.154 2666.71 385.495C2675.35 386.096 2683.99 386.223 2692.65 386.316C2694.29 386.337 2695.93 386.358 2697.57 386.379C2701.82 386.434 2706.08 386.484 2710.33 386.532C2714.7 386.583 2719.06 386.638 2723.43 386.693C2731.95 386.8 2740.48 386.902 2749 387C2749.08 388.937 2749.14 390.875 2749.19 392.813C2749.22 393.891 2749.26 394.97 2749.29 396.082C2749 399 2749 399 2747.64 400.817C2739.65 406.59 2728.44 406.852 2719 407.563C2702.11 408.343 2702.11 408.343 2687 415C2679.23 431.745 2682.73 456.194 2682.8 474.337C2682.81 477.448 2682.81 480.559 2682.81 483.67C2682.82 503.491 2683.07 523.305 2683.42 543.123C2683.87 569.453 2684.12 595.778 2684.23 622.111C2684.25 624.897 2684.26 627.683 2684.27 630.468C2684.35 647.523 2684.42 664.577 2684.48 681.632C2684.51 690.185 2684.54 698.737 2684.58 707.29C2684.61 712.628 2684.63 717.966 2684.64 723.304C2684.65 726.593 2684.67 729.882 2684.69 733.171C2684.69 734.685 2684.7 736.198 2684.7 737.712C2684.05 750.997 2684.05 750.997 2689.32 762.41C2699.82 768.633 2711.19 770.849 2723 773.362C2728.09 774.445 2733.17 775.561 2738.25 776.688C2739.2 776.89 2740.14 777.092 2741.12 777.301C2741.99 777.494 2742.87 777.688 2743.77 777.887C2744.54 778.054 2745.31 778.221 2746.1 778.393C2748 779 2748 779 2750 781C2750.27 783.688 2750.09 786.291 2750 789C2742.76 789.025 2735.52 789.043 2728.28 789.055C2725.82 789.06 2723.36 789.067 2720.9 789.075C2717.35 789.088 2713.8 789.093 2710.25 789.098C2709.16 789.103 2708.07 789.108 2706.95 789.113C2702.45 789.114 2698.04 789.073 2693.58 788.504C2687.58 787.748 2681.58 787.838 2675.54 787.832C2673.6 787.827 2673.6 787.827 2671.61 787.822C2668.87 787.816 2666.12 787.814 2663.37 787.815C2660.62 787.815 2657.86 787.808 2655.11 787.794C2638.32 787.711 2621.68 788.155 2604.94 789.551C2597.66 790.146 2590.3 790.469 2583 790C2582 789 2582 789 2581.9 786.277C2581.91 785.175 2581.93 784.073 2581.94 782.938C2581.95 781.833 2581.96 780.728 2581.96 779.59C2581.98 778.735 2581.99 777.881 2582 777C2588.29 773.846 2594.13 772.201 2601.06 771.125C2612.14 769.216 2623.57 766.398 2633 760C2639.75 746.5 2636.13 722.4 2636.08 707.736C2636.06 704.279 2636.06 700.822 2636.05 697.365C2636.04 688.768 2636.01 680.17 2635.99 671.573C2635.97 663.137 2635.95 654.701 2635.94 646.266C2635.94 645.081 2635.93 643.896 2635.93 642.675C2635.92 627.146 2636.1 611.639 2636.56 596.117C2637.14 576.39 2637.15 556.666 2637.13 536.932C2637.12 531.749 2637.13 526.567 2637.13 521.384C2637.59 484.12 2637.59 484.12 2635 447C2630.28 457.973 2625.76 469.014 2621.38 480.125C2620.93 481.242 2620.49 482.36 2620.03 483.511C2617.62 489.675 2615.32 495.869 2613.14 502.121C2610.08 510.902 2606.74 519.568 2603.37 528.233C2601.51 532.999 2599.66 537.769 2597.81 542.539C2597.23 544.039 2597.23 544.039 2596.64 545.57C2591.16 559.73 2585.79 573.933 2580.42 588.135C2577.24 596.542 2574.06 604.944 2570.68 613.277C2568.36 619.047 2566.24 624.856 2564.25 630.75C2558.2 648.362 2551.76 665.821 2544.76 683.076C2542.46 688.771 2540.35 694.51 2538.35 700.314C2536.26 706.336 2534.01 712.291 2531.75 718.25C2525.48 734.847 2519.77 751.639 2514.18 768.477C2513.95 769.172 2513.72 769.868 2513.48 770.584C2512.36 773.961 2511.24 777.339 2510.14 780.719C2509.74 781.92 2509.34 783.122 2508.93 784.359C2508.58 785.426 2508.23 786.493 2507.87 787.593C2507 790 2507 790 2506 791C2504.33 791.041 2502.67 791.043 2501 791C2497.62 783.259 2494.81 775.541 2492.44 767.438C2487.44 750.794 2481.73 734.402 2476 718C2475.65 717.012 2475.65 717.012 2475.3 716.003C2471.92 706.317 2468.47 696.654 2465 687C2464.59 685.853 2464.59 685.853 2464.17 684.683C2454.91 658.931 2445.21 633.388 2435 608C2434.45 606.633 2433.9 605.267 2433.35 603.9C2418.58 567.143 2403.43 530.506 2387.56 494.205C2384.92 488.159 2382.35 482.089 2379.81 476C2375.25 465.11 2370.38 454.448 2364.78 444.047C2364.23 443.023 2364.23 443.023 2363.67 441.978C2362.78 440.318 2361.89 438.659 2361 437C2358.99 461.61 2357.56 486.234 2356.47 510.899C2356.38 513.021 2356.28 515.144 2356.19 517.266C2351.32 623.484 2351.32 623.484 2354.38 729.688C2354.47 731.089 2354.47 731.089 2354.57 732.518C2355.08 751.48 2355.08 751.48 2363 768C2372.61 775.209 2389.98 773.57 2401.66 774.104C2403.89 774.209 2406.11 774.323 2408.34 774.438C2409.64 774.498 2410.95 774.559 2412.29 774.621C2416.09 775.009 2419.4 775.732 2423 777C2425.95 781.176 2424.66 785.222 2424 790C2409.24 790.098 2394.5 790.137 2379.75 789.5C2365.67 788.918 2351.59 788.886 2337.5 788.875C2336.38 788.873 2335.27 788.87 2334.12 788.867C2318.54 788.829 2318.54 788.829 2303 789.777C2296.9 790.23 2290.79 790.103 2284.69 790.062C2283.35 790.057 2282.01 790.053 2280.67 790.049C2277.45 790.037 2274.22 790.021 2271 790C2271 787.03 2271 784.06 2271 781C2272.83 780.031 2274.66 779.076 2276.5 778.125C2277.52 777.591 2278.54 777.058 2279.59 776.508C2288.47 772.579 2297.89 772.148 2307.45 771.232C2313.75 770.57 2319.27 769.798 2325 767C2326.63 764.059 2327.33 762.204 2328 759C2328.18 758.175 2328.36 757.35 2328.54 756.5C2332.46 734.818 2332.47 712.24 2333.42 690.273C2333.59 686.452 2333.76 682.631 2333.93 678.811C2334.22 672.267 2334.51 665.724 2334.8 659.18C2335.52 642.774 2336.26 626.369 2337 609.964C2337.12 607.327 2337.24 604.69 2337.35 602.054C2338.43 578.037 2339.56 554.023 2340.76 530.012C2340.83 528.601 2340.9 527.191 2340.97 525.78C2341.62 512.671 2342.28 499.563 2342.95 486.455C2344.3 459.974 2345.48 433.512 2346 407C2345.33 406.936 2344.65 406.871 2343.96 406.805C2342.63 406.675 2342.63 406.675 2341.27 406.543C2339.95 406.415 2339.95 406.415 2338.6 406.286C2334.89 405.878 2331.24 405.228 2327.56 404.563C2320.13 403.262 2312.7 402.352 2305.19 401.647C2299.36 401.091 2299.36 401.091 2296.95 400.482C2293.08 399.527 2288.96 399.762 2285 399.672C2282 399 2282 399 2280.12 396.68C2278.69 393.255 2278.66 390.678 2279 387C2282.14 382.286 2285.31 382.863 2290.62 382.875Z" fill="var(--fill-0, #FBFCFC)"/>
<path id="Vector_5" d="M1440.86 364.886C1441.65 364.892 1442.44 364.897 1443.25 364.902C1444.53 364.907 1444.53 364.907 1445.84 364.912C1446.74 364.92 1447.64 364.929 1448.56 364.938C1449.46 364.942 1450.37 364.947 1451.29 364.951C1453.53 364.963 1455.76 364.979 1458 365C1462.86 375.376 1467.2 385.883 1471.19 396.625C1471.79 398.248 1471.79 398.248 1472.41 399.904C1474.82 406.471 1477 413.09 1479.05 419.775C1481.51 427.721 1484.23 435.576 1486.94 443.438C1487.95 446.373 1488.96 449.31 1489.96 452.246C1490.23 453.024 1490.5 453.802 1490.77 454.603C1500.68 483.456 1510.5 512.338 1520.16 541.277C1521.02 543.866 1521.89 546.454 1522.75 549.043C1525.48 557.213 1528.21 565.385 1530.93 573.556C1534.04 582.867 1537.15 592.176 1540.26 601.484C1542.7 608.785 1545.14 616.087 1547.57 623.391C1549.01 627.711 1550.45 632.03 1551.9 636.348C1553.25 640.39 1554.6 644.433 1555.94 648.477C1556.43 649.942 1556.92 651.407 1557.41 652.871C1560.28 661.426 1562.92 670.009 1565.27 678.722C1567.29 686.228 1569.75 693.579 1572.25 700.938C1572.98 703.084 1573.7 705.23 1574.42 707.377C1574.91 708.818 1575.4 710.26 1575.89 711.701C1577.45 716.336 1578.97 720.983 1580.47 725.641C1584.22 737.263 1587.99 748.337 1594 759C1594.26 759.68 1594.51 760.36 1594.78 761.061C1595.86 763.191 1595.86 763.191 1598.21 763.926C1599.11 764.127 1600.01 764.328 1600.93 764.535C1606.73 765.935 1612.38 767.626 1618.06 769.438C1619.44 769.868 1619.44 769.868 1620.84 770.307C1625.47 771.779 1630.07 773.333 1634.62 775.035C1635.44 775.339 1636.26 775.644 1637.1 775.957C1639 777 1639 777 1640 780C1640.13 782.674 1640.04 785.321 1640 788C1605.36 788.119 1570.73 788.037 1536.09 787.594C1533.57 787.563 1531.05 787.533 1528.53 787.503C1524.54 787.456 1520.55 787.403 1516.56 787.347C1515.09 787.327 1513.62 787.308 1512.15 787.291C1491.08 787.038 1491.08 787.038 1487 785C1486.77 781.967 1486.65 779.027 1487 776C1491.03 771.549 1496.64 771.705 1502.29 771.316C1503.97 771.192 1505.65 771.068 1507.33 770.943C1509.97 770.752 1512.61 770.563 1515.25 770.378C1517.81 770.196 1520.36 770.007 1522.91 769.816C1523.69 769.764 1524.46 769.712 1525.26 769.658C1533.3 769.112 1533.3 769.112 1541 767C1545.79 752.625 1537.44 735.018 1532.99 721.403C1530.99 715.245 1529.18 709.097 1527.62 702.812C1525.46 694.159 1522.66 685.752 1519.8 677.306C1515.44 664.451 1511.34 651.525 1507.29 638.571C1503.98 628.006 1500.53 617.492 1497 607C1490.27 605.428 1483.95 604.712 1477.04 604.757C1476.1 604.755 1475.16 604.753 1474.2 604.751C1471.12 604.748 1468.05 604.758 1464.97 604.77C1462.82 604.771 1460.66 604.771 1458.5 604.771C1454 604.772 1449.49 604.781 1444.98 604.794C1439.23 604.811 1433.47 604.815 1427.72 604.814C1423.27 604.815 1418.82 604.82 1414.37 604.827C1412.25 604.83 1410.13 604.832 1408.01 604.833C1405.03 604.835 1402.06 604.844 1399.09 604.855C1397.79 604.854 1397.79 604.854 1396.48 604.853C1385.94 604.495 1385.94 604.495 1376 607C1371.84 616.839 1369.46 627.522 1366.73 637.819C1362.34 654.342 1357.42 670.706 1352.42 687.051C1350.87 692.104 1349.37 697.162 1347.94 702.25C1346.47 707.478 1344.85 712.644 1343.19 717.812C1339.46 729.443 1336.18 741.21 1333 753C1332.81 753.687 1332.62 754.374 1332.42 755.082C1331.27 760.337 1331.96 765.788 1333 771C1334.12 771.124 1335.23 771.248 1336.38 771.375C1340.3 771.81 1344.22 772.247 1348.13 772.684C1351.26 773.033 1354.38 773.381 1357.51 773.729C1359.13 773.91 1360.74 774.09 1362.36 774.271C1363.95 774.448 1365.54 774.626 1367.14 774.802C1368.67 774.974 1370.21 775.148 1371.75 775.324C1376.55 775.868 1381.33 776.274 1386.15 776.461C1388.83 777.243 1389.62 778.639 1391 781C1391.25 784.188 1391.25 784.188 1391 787C1389.44 788.559 1387.94 788.135 1385.77 788.145C1384.41 788.155 1384.41 788.155 1383.03 788.165C1382.04 788.166 1381.05 788.167 1380.03 788.168C1379 788.171 1377.97 788.175 1376.91 788.178C1374.71 788.183 1372.51 788.185 1370.31 788.185C1367.03 788.187 1363.76 788.205 1360.48 788.225C1350.16 788.251 1339.99 788.016 1329.72 786.996C1313.84 785.456 1297.91 785.775 1281.98 785.863C1277.79 785.884 1273.61 785.892 1269.42 785.902C1261.28 785.923 1253.14 785.957 1245 786C1244.89 784.397 1244.81 782.793 1244.75 781.188C1244.68 779.848 1244.68 779.848 1244.61 778.48C1245 776 1245 776 1246.8 774.21C1249.97 772.467 1253.12 772.379 1256.66 772.191C1258.19 772.083 1259.72 771.974 1261.26 771.865C1263.65 771.712 1266.04 771.564 1268.44 771.419C1284.71 770.601 1284.71 770.601 1298.75 763C1318.94 740.038 1326.54 703.203 1336.38 674.688C1336.62 673.974 1336.87 673.26 1337.12 672.525C1339.69 665.111 1342.12 657.69 1344.27 650.145C1347.77 637.931 1352.12 625.988 1356.31 614C1361.49 599.183 1366.62 584.362 1371.32 569.387C1373.32 563.044 1375.45 556.761 1377.69 550.5C1380.02 543.931 1382.12 537.349 1384.02 530.643C1386.05 523.597 1388.49 516.703 1390.97 509.807C1392.93 504.306 1394.67 498.769 1396.29 493.156C1399.32 482.651 1402.88 472.337 1406.44 462C1407.14 459.943 1407.84 457.887 1408.55 455.83C1409.99 451.624 1411.43 447.419 1412.87 443.215C1415.85 434.518 1418.82 425.817 1421.79 417.116C1422.66 414.581 1423.53 412.046 1424.39 409.512C1425.93 405.009 1427.47 400.505 1429 396C1429.24 395.302 1429.47 394.604 1429.72 393.885C1432.11 386.849 1434.44 379.836 1436.25 372.625C1438.16 365.051 1438.16 365.051 1440.86 364.886Z" fill="var(--fill-0, #FBFCFB)"/>
<path id="Vector_6" d="M1241.75 1230.44C1242.45 1230.44 1243.15 1230.45 1243.87 1230.45C1255.15 1230.55 1265.52 1231.58 1276 1236C1276.63 1236.26 1277.26 1236.52 1277.91 1236.79C1301.08 1246.77 1318.61 1265.67 1328.41 1288.75C1344.97 1330.98 1343.86 1387.66 1326.17 1429.38C1321.33 1440.04 1314.66 1450.05 1306 1458C1305.34 1458 1304.68 1458 1304 1458C1304 1458.66 1304 1459.32 1304 1460C1295.78 1466.83 1286.9 1471.19 1277 1475C1276.19 1475.35 1275.37 1475.7 1274.53 1476.06C1256.59 1482.73 1231.21 1483.38 1213.37 1476.55C1184.45 1463.26 1167.04 1440.68 1156.09 1411.44C1153.13 1403.03 1151.31 1394.28 1149.54 1385.56C1149.2 1383.94 1148.83 1382.31 1148.43 1380.7C1146.53 1372.65 1146.61 1364.54 1146.62 1356.31C1146.62 1355.54 1146.62 1354.77 1146.62 1353.97C1146.65 1340.65 1147.91 1327.99 1151 1315C1151.16 1314.29 1151.32 1313.58 1151.49 1312.85C1156.17 1292.31 1164.67 1271.72 1179 1256C1179.55 1255.37 1180.1 1254.74 1180.66 1254.09C1195.73 1237.82 1220.26 1230.16 1241.75 1230.44Z" fill="var(--fill-0, #176F38)"/>
<path id="Vector_7" d="M321.375 369.688C328.612 372.308 331.122 379.162 334.5 385.688C337.143 390.712 339.137 394.04 344 397C357.454 400.394 372.63 399.162 386.391 399.189C388.615 399.197 390.84 399.206 393.064 399.215C397.827 399.233 402.591 399.248 407.354 399.26C414.905 399.281 422.457 399.308 430.008 399.337C440.611 399.377 451.214 399.414 461.817 399.448C462.488 399.45 463.159 399.452 463.85 399.454C468.609 399.47 473.367 399.485 478.125 399.5C483.55 399.517 488.975 399.535 494.4 399.552C495.069 399.554 495.737 399.557 496.425 399.559C507.625 399.595 518.826 399.635 530.026 399.678C537.512 399.706 544.999 399.729 552.485 399.749C557.168 399.763 561.851 399.78 566.533 399.799C568.682 399.806 570.831 399.813 572.98 399.817C586.681 399.845 600.32 400.232 614 401C614.799 399.753 615.594 398.503 616.387 397.252C616.83 396.557 617.273 395.861 617.73 395.144C619.662 391.884 621.026 388.445 622.438 384.938C624.907 379.116 627.04 374.133 632 370C635.919 369.469 638.273 369.758 642 371C643.434 374.447 643.127 378.197 643.129 381.875C643.132 382.904 643.132 382.904 643.135 383.953C643.139 386.23 643.136 388.508 643.133 390.785C643.133 392.4 643.134 394.014 643.136 395.628C643.137 399.035 643.135 402.443 643.13 405.85C643.125 410.103 643.128 414.356 643.134 418.609C643.153 435.198 643.079 451.784 642.673 468.369C642.636 469.896 642.602 471.424 642.571 472.951C642.527 475.054 642.47 477.157 642.41 479.26C642.379 480.445 642.348 481.631 642.317 482.853C642.003 485.97 641.427 488.221 640 491C637.089 492.455 635.219 492.451 632 492C627.611 486.965 626.772 481.495 625.562 475.062C620.794 449.495 620.794 449.495 606.029 429.218C599.311 425.186 592.018 423.245 584.309 422.293C583.348 422.172 582.387 422.05 581.397 421.925C565.9 420.204 550.226 420.427 534.654 420.33C530.281 420.3 525.909 420.254 521.537 420.209C513.025 420.124 504.513 420.056 496 420C496.025 420.883 496.05 421.765 496.076 422.674C496.802 449.156 497.215 475.643 497.539 502.133C497.55 503.04 497.561 503.948 497.573 504.883C497.967 537.261 498.07 569.635 498.027 602.016C498.026 603.106 498.025 604.197 498.023 605.321C497.999 625.421 497.961 645.521 497.913 665.621C497.885 676.907 497.863 688.194 497.852 699.481C497.846 705.792 497.831 712.104 497.808 718.415C497.796 722.295 497.793 726.175 497.792 730.055C497.79 731.841 497.784 733.627 497.775 735.413C497.107 750.244 497.107 750.244 501.875 763.812C511.817 770.772 524.065 772.953 535.688 775.625C538.943 776.382 542.197 777.146 545.449 777.914C546.213 778.094 546.978 778.274 547.765 778.459C552.955 779.7 557.983 781.166 563 783C563 786.63 563 790.26 563 794C546.963 794.106 530.951 794.021 514.919 793.571C486.992 792.79 458.941 792.159 431.03 793.637C421.987 794.081 412.944 794.146 403.891 794.177C402.099 794.184 400.308 794.194 398.516 794.208C396.004 794.226 393.493 794.23 390.98 794.23C389.839 794.241 389.839 794.241 388.673 794.252C384.901 794.236 383.22 794.146 380 792C380.06 790.561 380.149 789.124 380.25 787.688C380.296 786.887 380.343 786.086 380.391 785.262C381.216 782.2 382.308 781.646 385 780C388.122 779.112 388.122 779.112 391.793 778.387C393.152 778.109 394.511 777.831 395.869 777.552C396.576 777.411 397.282 777.27 398.009 777.125C418.651 773.15 418.651 773.15 437.809 764.824C441 763 441 763 443 763C443.48 761.417 443.959 759.834 444.438 758.25C444.704 757.368 444.971 756.487 445.246 755.578C445.495 754.727 445.744 753.877 446 753C446.169 752.45 446.338 751.9 446.512 751.333C447.221 747.944 447.378 744.545 447.554 741.097C447.596 740.272 447.638 739.448 447.682 738.598C448.226 726.586 448.146 714.561 448.134 702.539C448.132 699.701 448.134 696.864 448.136 694.027C448.14 686.457 448.137 678.886 448.131 671.316C448.126 665.79 448.124 660.264 448.122 654.738C448.113 619.936 448.073 585.139 447.429 550.342C446.63 506.902 446.913 463.446 447 420C438.496 420.062 429.993 420.14 421.49 420.236C417.539 420.28 413.588 420.319 409.637 420.346C373.67 418.852 373.67 418.852 342.625 433.309C329.806 446.452 319.437 461.676 309.404 476.988C301.667 488.666 301.667 488.666 297 491C293.938 491.125 293.938 491.125 291 491C289.426 489.426 289.729 487.954 289.648 485.754C289.743 476.284 292.443 467.098 294.625 457.938C295.089 455.95 295.553 453.962 296.015 451.973C296.924 448.068 297.839 444.165 298.761 440.263C300.047 434.813 301.3 429.356 302.545 423.896C304.952 413.363 307.454 402.854 309.997 392.353C310.23 391.389 310.463 390.426 310.703 389.434C310.925 388.517 311.147 387.6 311.376 386.655C312.14 383.406 312.83 380.143 313.494 376.872C314.774 372.134 316.508 370.138 321.375 369.688Z" fill="var(--fill-0, #FCFDFC)"/>
<path id="Vector_8" d="M2016.02 382.871C2016.84 382.867 2017.67 382.864 2018.53 382.861C2019.42 382.863 2020.32 382.865 2021.25 382.867C2022.18 382.866 2023.11 382.865 2024.06 382.864C2026.03 382.864 2028 382.865 2029.97 382.87C2032.96 382.875 2035.95 382.87 2038.93 382.863C2040.85 382.864 2042.77 382.865 2044.69 382.867C2046.01 382.864 2046.01 382.864 2047.36 382.861C2052.54 382.88 2057.59 383.209 2062.74 383.773C2065.62 384.062 2068.46 384.129 2071.36 384.133C2072.46 384.135 2073.57 384.137 2074.72 384.139C2075.86 384.134 2077.01 384.13 2078.19 384.125C2079.99 384.122 2079.99 384.122 2081.83 384.119C2088.94 384.085 2095.93 383.813 2103.02 383.223C2112.33 382.702 2121.68 382.931 2131 383C2131 387.29 2131 391.58 2131 396C2126.76 397.327 2122.57 398.309 2118.2 399.113C2116.61 399.408 2116.61 399.408 2114.99 399.709C2112.8 400.109 2110.61 400.5 2108.42 400.881C2096.53 403.098 2096.53 403.098 2087.26 410.275C2083.82 416.054 2082.87 421.326 2082.87 428.014C2082.87 429.791 2082.87 429.791 2082.86 431.604C2082.87 432.88 2082.87 434.155 2082.88 435.469C2082.88 436.461 2082.88 436.461 2082.88 437.474C2082.91 450.863 2083.31 464.233 2083.8 477.613C2088.31 603.404 2088.31 603.404 2085 662C2084.92 663.447 2084.92 663.447 2084.84 664.923C2082.46 703.913 2072.35 740.377 2042.84 767.39C2028.97 779.511 2011.15 787.1 1993.69 792.438C1992.96 792.66 1992.24 792.883 1991.49 793.112C1976.62 797.345 1962.18 798.488 1946.79 798.391C1943.77 798.375 1940.75 798.391 1937.72 798.41C1921.11 798.43 1904 797.579 1888.25 791.812C1886.96 791.36 1886.96 791.36 1885.65 790.898C1868 784.53 1851.83 776.017 1838.15 763.008C1835.98 760.931 1835.98 760.931 1833.43 758.957C1814.89 744.021 1806.02 719.828 1803 697C1801.18 679.469 1800.72 661.985 1800.82 644.375C1800.83 641.949 1800.83 639.523 1800.83 637.097C1800.85 631.271 1800.86 625.445 1800.89 619.619C1800.91 612.808 1800.93 605.998 1800.94 599.188C1800.96 587.032 1800.98 574.876 1801.01 562.72C1801.02 561.997 1801.02 561.274 1801.02 560.529C1801.04 552.447 1801.06 544.365 1801.09 536.282C1801.1 533.34 1801.11 530.397 1801.12 527.455C1801.12 526.728 1801.12 526.002 1801.12 525.254C1801.16 513.117 1801.18 500.981 1801.2 488.845C1801.21 482.056 1801.23 475.267 1801.26 468.478C1801.28 462.107 1801.3 455.735 1801.3 449.364C1801.31 447.034 1801.32 444.705 1801.33 442.375C1802.35 421.832 1802.35 421.832 1794 404C1790.59 402.864 1787.87 402.824 1784.28 402.754C1782.92 402.721 1781.56 402.688 1780.21 402.654C1778.08 402.607 1775.96 402.563 1773.83 402.523C1753.18 402.119 1753.18 402.119 1747.37 398.25C1745.53 395.223 1745.42 393.488 1746 390C1747.87 387.697 1749.36 386.322 1752 385C1754.69 384.877 1757.36 384.814 1760.06 384.795C1760.9 384.785 1761.73 384.775 1762.6 384.765C1765.4 384.733 1768.2 384.708 1771.01 384.684C1772.98 384.663 1774.96 384.642 1776.94 384.62C1782.24 384.565 1787.54 384.515 1792.84 384.468C1796.11 384.438 1799.38 384.406 1802.65 384.373C1836.1 384.042 1869.55 383.854 1903 384C1904.38 386.765 1904.1 389.046 1904.06 392.125C1904.05 393.221 1904.04 394.316 1904.04 395.445C1904.02 396.71 1904.02 396.71 1904 398C1899.21 399.532 1895.14 400.255 1890.07 400.309C1888.13 400.346 1888.13 400.346 1886.16 400.385C1884.14 400.413 1882.13 400.437 1880.11 400.456C1870.91 400.559 1862.96 400.836 1855.06 405.875C1849.35 411.762 1850.02 420.921 1849.38 428.658C1849.32 429.446 1849.25 430.234 1849.18 431.046C1847.62 450.226 1847.68 469.358 1847.86 488.587C1847.91 493.531 1847.94 498.476 1847.96 503.421C1848.01 511.713 1848.08 520.005 1848.15 528.297C1848.24 538.816 1848.31 549.335 1848.37 559.855C1848.43 569.059 1848.49 578.263 1848.56 587.467C1848.57 589.404 1848.58 591.342 1848.6 593.279C1848.73 613.211 1848.94 633.136 1849.48 653.061C1849.5 653.799 1849.52 654.538 1849.54 655.299C1849.76 663.323 1850.04 671.344 1850.37 679.364C1850.4 680.071 1850.43 680.779 1850.46 681.508C1851.07 695.456 1852.26 708.781 1857 722C1857.39 723.128 1857.79 724.256 1858.19 725.418C1866.08 745.953 1880.36 757.206 1900 766C1904.6 767.93 1909.23 769.537 1914 771C1915.25 771.396 1916.49 771.791 1917.78 772.199C1949.4 781.031 1993.15 777.075 2021.9 761.173C2027.79 757.719 2032.96 753.585 2038 749C2038.71 748.388 2039.41 747.775 2040.14 747.145C2056.14 732.396 2061.61 711.519 2066 691C2066.36 689.422 2066.36 689.422 2066.72 687.812C2067.78 682.698 2068.22 677.591 2068.52 672.383C2068.58 671.269 2068.58 671.269 2068.65 670.133C2069.13 661.303 2069.33 652.47 2069.49 643.629C2069.51 642.712 2069.53 641.795 2069.54 640.85C2069.67 633.754 2069.78 626.659 2069.87 619.562C2069.89 618.508 2069.9 617.453 2069.92 616.367C2070.39 580.179 2069.54 544.144 2067.75 508C2067.7 506.884 2067.64 505.769 2067.58 504.619C2066.56 483.667 2065.44 462.711 2063.75 441.799C2063.64 440.383 2063.53 438.967 2063.43 437.551C2062.69 427.658 2061.58 416.231 2054 409C2044.4 402.684 2033.34 399.758 2022.39 396.697C2018.56 395.579 2014.78 394.29 2011 393C2010.67 390.03 2010.34 387.06 2010 384C2012.27 382.867 2013.5 382.873 2016.02 382.871Z" fill="var(--fill-0, #FBFCFB)"/>
<path id="Vector_9" d="M1840.62 1222.7C1842.82 1222.7 1845.02 1222.69 1847.21 1222.69C1851.8 1222.68 1856.39 1222.68 1860.98 1222.68C1866.8 1222.69 1872.62 1222.67 1878.44 1222.65C1882.98 1222.64 1887.51 1222.63 1892.04 1222.64C1894.19 1222.64 1896.33 1222.63 1898.47 1222.62C1922.28 1222.52 1947.92 1223.16 1966.44 1240.25C1980.84 1255.43 1985.45 1272.49 1985.22 1292.81C1985.05 1298.58 1984.09 1303.61 1982 1309C1981.72 1309.84 1981.44 1310.69 1981.16 1311.56C1978.88 1318.02 1975.39 1322.81 1971 1328C1970.36 1328.84 1969.71 1329.67 1969.05 1330.53C1961.68 1339.42 1950.76 1345.09 1941 1351C1943.66 1357.94 1946.65 1364.62 1950 1371.25C1950.48 1372.2 1950.95 1373.15 1951.45 1374.13C1955.27 1381.68 1959.28 1389.12 1963.38 1396.53C1966.64 1402.45 1969.78 1408.42 1972.86 1414.43C1990.02 1450.91 1990.02 1450.91 2021 1474C2026.95 1475.57 2032.97 1476.81 2039 1478C2039 1480.64 2039 1483.28 2039 1486C2017.22 1486 1995.44 1486 1973 1486C1966.93 1474.46 1960.91 1462.95 1955.19 1451.25C1952.24 1445.28 1949.15 1439.43 1945.94 1433.6C1940.86 1424.41 1936 1415.14 1931.35 1405.72C1930.8 1404.6 1930.25 1403.48 1929.68 1402.33C1927.41 1397.74 1925.15 1393.14 1922.9 1388.54C1921.23 1385.11 1919.54 1381.7 1917.85 1378.29C1917.35 1377.25 1916.85 1376.22 1916.34 1375.16C1911.63 1365.15 1911.63 1365.15 1903.09 1358.86C1897.69 1357.48 1892.1 1357.53 1886.56 1357.37C1884.89 1357.32 1884.89 1357.32 1883.19 1357.26C1880.46 1357.16 1877.73 1357.08 1875 1357C1875.06 1370.55 1875.14 1384.1 1875.24 1397.66C1875.28 1403.95 1875.32 1410.24 1875.35 1416.54C1875.37 1422.61 1875.41 1428.69 1875.46 1434.76C1875.48 1437.08 1875.49 1439.39 1875.5 1441.71C1875.51 1444.96 1875.54 1448.2 1875.57 1451.45C1875.57 1452.41 1875.56 1453.36 1875.56 1454.34C1875.65 1460.22 1876.51 1464.64 1879 1470C1885.13 1475.12 1894.98 1476.47 1902.62 1478.3C1903.82 1478.59 1903.82 1478.59 1905.04 1478.89C1905.75 1479.05 1906.47 1479.22 1907.2 1479.39C1909 1480 1909 1480 1911 1482C1911 1483.65 1911 1485.3 1911 1487C1875.69 1487 1840.38 1487 1804 1487C1804 1481 1804 1481 1805 1479C1807.33 1478.41 1809.58 1477.96 1811.94 1477.56C1812.64 1477.44 1813.34 1477.31 1814.06 1477.19C1816.37 1476.78 1818.69 1476.39 1821 1476C1821.83 1475.86 1822.66 1475.72 1823.52 1475.57C1828.68 1474.7 1833.84 1473.84 1839 1473C1840.13 1469.26 1840.32 1465.5 1840.52 1461.63C1840.57 1460.86 1840.61 1460.08 1840.65 1459.28C1842.65 1420.94 1842.34 1382.53 1842.31 1344.15C1842.31 1336.23 1842.32 1328.3 1842.34 1320.38C1842.36 1312.64 1842.37 1304.91 1842.36 1297.17C1842.36 1292.59 1842.36 1288.01 1842.38 1283.43C1842.39 1279.15 1842.39 1274.87 1842.38 1270.6C1842.37 1269.04 1842.38 1267.48 1842.38 1265.92C1842.75 1253.05 1842.75 1253.05 1839 1241C1836.06 1239.52 1833.13 1238.7 1829.93 1238C1829.18 1237.84 1828.43 1237.67 1827.67 1237.5C1826.89 1237.34 1826.11 1237.17 1825.31 1237C1824.51 1236.83 1823.72 1236.65 1822.89 1236.47C1817.83 1235.37 1812.75 1234.33 1807.65 1233.39C1806 1233 1806 1233 1805 1232C1804.96 1229.67 1804.96 1227.33 1805 1225C1816.83 1222.53 1828.59 1222.69 1840.62 1222.7Z" fill="var(--fill-0, #FBFCFC)"/>
<path id="Vector_10" d="M268.625 1222.7C270.821 1222.7 273.016 1222.69 275.212 1222.69C279.801 1222.68 284.39 1222.68 288.979 1222.68C294.8 1222.69 300.621 1222.67 306.443 1222.65C310.976 1222.64 315.51 1222.63 320.043 1222.64C322.186 1222.64 324.329 1222.63 326.472 1222.62C350.28 1222.52 375.922 1223.16 394.438 1240.25C408.841 1255.43 413.45 1272.49 413.219 1292.81C413.054 1298.58 412.087 1303.61 410 1309C409.722 1309.84 409.443 1310.69 409.156 1311.56C406.876 1318.02 403.394 1322.81 399 1328C398.355 1328.84 397.711 1329.67 397.047 1330.53C389.676 1339.42 378.758 1345.09 369 1351C371.656 1357.94 374.65 1364.62 378 1371.25C378.477 1372.2 378.954 1373.15 379.446 1374.13C383.27 1381.68 387.284 1389.12 391.377 1396.53C394.637 1402.45 397.78 1408.42 400.861 1414.43C418.02 1450.91 418.02 1450.91 449 1474C454.948 1475.57 460.965 1476.81 467 1478C467 1480.64 467 1483.28 467 1486C445.22 1486 423.44 1486 401 1486C394.926 1474.46 388.912 1462.95 383.188 1451.25C380.237 1445.28 377.152 1439.43 373.936 1433.6C368.86 1424.41 364 1415.14 359.352 1405.72C358.798 1404.6 358.245 1403.48 357.676 1402.33C355.41 1397.74 353.151 1393.14 350.902 1388.54C349.227 1385.11 347.54 1381.7 345.852 1378.29C345.351 1377.25 344.851 1376.22 344.336 1375.16C339.632 1365.15 339.632 1365.15 331.085 1358.86C325.688 1357.48 320.101 1357.53 314.562 1357.37C312.893 1357.32 312.893 1357.32 311.189 1357.26C308.46 1357.16 305.73 1357.08 303 1357C303.061 1370.55 303.138 1384.1 303.236 1397.66C303.28 1403.95 303.32 1410.24 303.346 1416.54C303.372 1422.61 303.413 1428.69 303.463 1434.76C303.48 1437.08 303.491 1439.39 303.498 1441.71C303.507 1444.96 303.535 1448.2 303.568 1451.45C303.566 1452.41 303.565 1453.36 303.563 1454.34C303.646 1460.22 304.514 1464.64 307 1470C313.126 1475.12 322.981 1476.47 330.625 1478.3C331.818 1478.59 331.818 1478.59 333.035 1478.89C333.751 1479.05 334.466 1479.22 335.203 1479.39C337 1480 337 1480 339 1482C339 1483.65 339 1485.3 339 1487C303.69 1487 268.38 1487 232 1487C232 1481 232 1481 233 1479C235.326 1478.41 237.578 1477.96 239.938 1477.56C240.638 1477.44 241.339 1477.31 242.061 1477.19C244.372 1476.78 246.686 1476.39 249 1476C249.832 1475.86 250.663 1475.72 251.52 1475.57C256.677 1474.7 261.837 1473.84 267 1473C268.135 1469.26 268.318 1465.5 268.524 1461.63C268.566 1460.86 268.609 1460.08 268.652 1459.28C270.647 1420.94 270.34 1382.53 270.314 1344.15C270.31 1336.23 270.324 1328.3 270.343 1320.38C270.361 1312.64 270.367 1304.91 270.364 1297.17C270.362 1292.59 270.364 1288.01 270.378 1283.43C270.391 1279.15 270.389 1274.87 270.376 1270.6C270.374 1269.04 270.376 1267.48 270.385 1265.92C270.751 1253.05 270.751 1253.05 267 1241C264.064 1239.52 261.129 1238.7 257.926 1238C257.18 1237.84 256.434 1237.67 255.666 1237.5C254.889 1237.34 254.113 1237.17 253.312 1237C252.515 1236.83 251.717 1236.65 250.895 1236.47C245.828 1235.37 240.753 1234.33 235.652 1233.39C234 1233 234 1233 233 1232C232.959 1229.67 232.958 1227.33 233 1225C244.833 1222.53 256.593 1222.69 268.625 1222.7Z" fill="var(--fill-0, #FBFCFC)"/>
<path id="Vector_11" d="M1245.37 1221.56C1246.58 1221.57 1246.58 1221.57 1247.81 1221.57C1260.22 1221.64 1272.07 1222.3 1284 1226C1284.68 1226.2 1285.35 1226.41 1286.05 1226.62C1301.95 1231.58 1317.85 1239.55 1330 1251C1330.91 1251.84 1331.82 1252.68 1332.75 1253.55C1349.47 1269.62 1361.76 1289.22 1368.25 1311.5C1368.5 1312.34 1368.74 1313.18 1369 1314.05C1372.51 1326.68 1373.35 1338.99 1373.32 1352.03C1373.31 1354.6 1373.34 1357.17 1373.36 1359.75C1373.47 1388.94 1366.15 1418.91 1346 1441C1345.19 1441.94 1344.38 1442.87 1343.55 1443.84C1327.95 1461.71 1308.8 1475.39 1286.31 1483.19C1285.64 1483.43 1284.97 1483.66 1284.28 1483.91C1271.26 1488.21 1257.9 1489.51 1244.27 1489.39C1242 1489.37 1239.73 1489.39 1237.46 1489.41C1223.41 1489.43 1209.82 1487.48 1196.5 1482.87C1195.19 1482.43 1195.19 1482.43 1193.85 1481.97C1163.12 1471.07 1139.43 1446.94 1125 1418C1110 1385.37 1106.01 1344.32 1118.29 1310.15C1123.76 1296.46 1130.07 1282.79 1139 1271C1139.62 1270.16 1140.24 1269.32 1140.88 1268.45C1161.12 1242.07 1191.94 1226.82 1224.56 1222.28C1231.48 1221.48 1238.42 1221.51 1245.37 1221.56ZM1207 1237C1205.89 1237.49 1205.89 1237.49 1204.77 1237.99C1181.28 1248.62 1166.76 1268.26 1157.75 1292C1155.01 1299.54 1152.77 1307.17 1151 1315C1150.82 1315.77 1150.63 1316.54 1150.44 1317.33C1144 1345.17 1145.26 1373.61 1153 1401C1153.25 1401.88 1153.49 1402.77 1153.74 1403.68C1159.64 1424.38 1169.88 1442.67 1185 1458C1185.73 1458.74 1186.46 1459.49 1187.21 1460.25C1196.12 1468.73 1207.3 1474.45 1219 1478C1219.97 1478.36 1220.95 1478.71 1221.95 1479.08C1243.89 1485.25 1271.25 1479.33 1291 1469C1295.57 1466.35 1300 1463.46 1304 1460C1304 1459.34 1304 1458.68 1304 1458C1304.56 1457.78 1305.12 1457.56 1305.7 1457.34C1319.88 1449.1 1327.81 1427.94 1332 1413C1342.65 1368.71 1345.19 1314.54 1320.88 1274.13C1308.93 1255.16 1291.67 1240.5 1270 1234C1269.17 1233.74 1268.34 1233.49 1267.49 1233.23C1259.14 1230.87 1251.07 1230.4 1242.44 1230.44C1241.73 1230.44 1241.03 1230.44 1240.31 1230.44C1228.36 1230.5 1217.93 1231.97 1207 1237Z" fill="var(--fill-0, #FBFCFB)"/>
<path id="Vector_12" d="M970.781 418.555C980.03 425.447 987.454 432.735 993 443C993.532 443.969 994.065 444.939 994.613 445.937C1005.39 466.482 1009.34 492.063 1002.5 514.562C996.539 532.68 987.339 550.623 969.884 559.895C958.694 565.532 947.263 567.951 935 570C933.823 570.209 932.646 570.418 931.434 570.633C917.735 572.731 903.819 572.182 890 572C888.328 568.656 888.768 564.885 888.706 561.203C888.677 559.831 888.677 559.831 888.648 558.431C888.586 555.371 888.531 552.31 888.477 549.25C888.435 547.086 888.394 544.922 888.352 542.757C887.928 520.115 887.661 497.47 887.442 474.824C887.387 469.052 887.323 463.279 887.257 457.507C887.207 452.963 887.162 448.42 887.118 443.876C887.097 441.746 887.074 439.615 887.049 437.485C886.911 425.601 887.028 413.85 888 402C915.468 397.253 947.715 402.221 970.781 418.555Z" fill="var(--fill-0, #176F38)"/>
<path id="Vector_13" d="M2419.41 1224.87C2420.19 1224.87 2420.98 1224.87 2421.78 1224.87C2423.02 1224.87 2423.02 1224.87 2424.28 1224.87C2427.07 1224.86 2429.85 1224.87 2432.64 1224.87C2434.63 1224.87 2436.62 1224.87 2438.61 1224.87C2444.02 1224.86 2449.44 1224.86 2454.86 1224.87C2460.51 1224.87 2466.17 1224.87 2471.83 1224.86C2481.32 1224.86 2490.82 1224.86 2500.32 1224.87C2511.32 1224.88 2522.32 1224.87 2533.32 1224.87C2542.75 1224.86 2552.18 1224.86 2561.6 1224.87C2567.24 1224.87 2572.88 1224.87 2578.52 1224.86C2583.81 1224.86 2589.11 1224.86 2594.41 1224.87C2596.36 1224.87 2598.31 1224.87 2600.26 1224.87C2602.92 1224.86 2605.57 1224.87 2608.22 1224.87C2609.39 1224.87 2609.39 1224.87 2610.59 1224.87C2615.89 1224.89 2615.89 1224.89 2617 1226C2617.09 1227.81 2617.12 1229.62 2617.11 1231.44C2617.11 1232.6 2617.11 1233.76 2617.11 1234.96C2617.11 1236.22 2617.1 1237.48 2617.1 1238.79C2617.1 1240.71 2617.1 1240.71 2617.09 1242.68C2617.09 1246.11 2617.08 1249.53 2617.07 1252.96C2617.06 1256.45 2617.05 1259.94 2617.05 1263.43C2617.04 1270.29 2617.02 1277.14 2617 1284C2615.35 1284 2613.7 1284 2612 1284C2611.8 1283.48 2611.6 1282.96 2611.39 1282.42C2606.83 1270.61 2601.9 1259.2 2596 1248C2595.51 1247.04 2595.03 1246.07 2594.53 1245.08C2594.11 1244.27 2593.68 1243.46 2593.25 1242.62C2592.9 1241.96 2592.56 1241.29 2592.2 1240.6C2590.63 1238.5 2589.46 1237.95 2587 1237C2583.74 1236.7 2583.74 1236.7 2580.06 1236.76C2579.02 1236.75 2579.02 1236.75 2577.96 1236.75C2575.67 1236.75 2573.38 1236.76 2571.08 1236.77C2569.47 1236.77 2567.85 1236.77 2566.23 1236.77C2562.83 1236.77 2559.43 1236.78 2556.03 1236.79C2551.75 1236.81 2547.46 1236.81 2543.18 1236.81C2527.87 1236.81 2512.56 1236.86 2497.26 1237.32C2495.73 1237.36 2495.73 1237.36 2494.18 1237.39C2492.8 1237.44 2492.8 1237.44 2491.4 1237.49C2490.61 1237.52 2489.83 1237.54 2489.02 1237.57C2486.34 1238.14 2485.54 1238.72 2484 1241C2482.78 1246.57 2482.83 1252.2 2482.79 1257.88C2482.78 1258.85 2482.77 1259.82 2482.76 1260.81C2482.73 1263.99 2482.71 1267.16 2482.68 1270.34C2482.66 1272.55 2482.64 1274.76 2482.62 1276.97C2482.57 1282.77 2482.52 1288.57 2482.47 1294.37C2482.42 1300.3 2482.36 1306.22 2482.31 1312.15C2482.2 1323.77 2482.1 1335.38 2482 1347C2501.2 1347.04 2520.39 1347.05 2539.58 1346.74C2541.86 1346.7 2544.14 1346.68 2546.41 1346.65C2549.81 1346.62 2553.2 1346.57 2556.59 1346.51C2557.59 1346.51 2558.6 1346.5 2559.63 1346.49C2565.84 1346.36 2572.44 1346.02 2578 1343C2579.99 1339.46 2580.45 1336 2581 1332C2581.35 1329.46 2581.71 1326.91 2582.07 1324.37C2582.31 1322.61 2582.53 1320.85 2582.74 1319.08C2583.43 1313.69 2584.43 1310.17 2588 1306C2590.69 1305.56 2590.69 1305.56 2593 1306C2594 1307 2594 1307 2594.11 1309.53C2594.11 1310.66 2594.1 1311.79 2594.1 1312.95C2594.09 1314.86 2594.09 1314.86 2594.09 1316.82C2594.08 1317.5 2594.08 1318.19 2594.08 1318.9C2594.06 1321.06 2594.06 1323.22 2594.05 1325.38C2594.04 1330.75 2594.01 1336.13 2593.99 1341.5C2593.97 1346.02 2593.95 1350.55 2593.94 1355.07C2593.94 1357.17 2593.93 1359.27 2593.91 1361.38C2593.89 1368.97 2594.15 1376.47 2594.77 1384.04C2595.06 1387.83 2595.1 1391.57 2595.06 1395.37C2595.05 1396.64 2595.04 1397.91 2595.04 1399.21C2595.02 1400.59 2595.02 1400.59 2595 1402C2593.35 1402.33 2591.7 1402.66 2590 1403C2586.97 1396.45 2584.62 1390.01 2583 1383C2580 1369.19 2580 1369.19 2571 1359C2566.21 1357.01 2561.82 1356.72 2556.7 1356.77C2555.89 1356.77 2555.08 1356.77 2554.24 1356.77C2551.58 1356.77 2548.92 1356.79 2546.26 1356.8C2544.41 1356.81 2542.55 1356.81 2540.7 1356.81C2535.84 1356.82 2530.98 1356.84 2526.11 1356.86C2521.15 1356.88 2516.18 1356.89 2511.21 1356.9C2501.47 1356.92 2491.74 1356.96 2482 1357C2482.11 1369.81 2482.22 1382.63 2482.34 1395.44C2482.39 1401.39 2482.45 1407.34 2482.5 1413.29C2482.55 1419.05 2482.6 1424.8 2482.65 1430.55C2482.67 1432.73 2482.69 1434.92 2482.71 1437.11C2482.76 1443.74 2482.84 1450.37 2483 1457C2483.02 1458.08 2483.02 1458.08 2483.05 1459.19C2483.1 1461.02 2483.18 1462.86 2483.27 1464.7C2483.34 1466.12 2483.34 1466.12 2483.4 1467.58C2484.18 1470.73 2485.5 1471.98 2488 1474C2491.71 1475.24 2495.14 1475.15 2499 1475.15C2499.81 1475.15 2500.63 1475.15 2501.47 1475.16C2504.17 1475.16 2506.87 1475.17 2509.58 1475.17C2511.47 1475.17 2513.35 1475.17 2515.24 1475.18C2519.21 1475.18 2523.18 1475.19 2527.15 1475.19C2532.19 1475.19 2537.24 1475.2 2542.28 1475.22C2546.19 1475.23 2550.1 1475.23 2554.01 1475.23C2555.86 1475.23 2557.72 1475.23 2559.58 1475.24C2587.79 1475.46 2587.79 1475.46 2611.64 1461.8C2619.96 1451.94 2624.72 1439.54 2629.55 1427.72C2629.94 1426.77 2630.33 1425.83 2630.74 1424.86C2631.08 1424.02 2631.42 1423.18 2631.77 1422.31C2633.19 1419.64 2634.66 1417.91 2637 1416C2640.25 1416.25 2640.25 1416.25 2643 1417C2642.02 1422.76 2640.91 1428.45 2639.5 1434.12C2636.72 1446.02 2635.76 1458.13 2635.52 1470.32C2635.38 1474.42 2634.83 1477.89 2633.47 1481.78C2633.2 1482.57 2632.92 1483.37 2632.64 1484.19C2632.43 1484.79 2632.22 1485.38 2632 1486C2610.24 1486.13 2588.48 1486.26 2566.71 1486.39C2556.6 1486.45 2546.49 1486.51 2536.38 1486.57C2458.62 1487.05 2458.62 1487.05 2433.42 1487.09C2431.48 1487.09 2429.55 1487.1 2427.61 1487.1C2425.08 1487.11 2422.55 1487.12 2420.02 1487.12C2418.94 1487.12 2418.94 1487.12 2417.85 1487.13C2413.11 1487.11 2413.11 1487.11 2412 1486C2411.75 1483.06 2411.75 1483.06 2412 1480C2415.47 1477.68 2417.63 1477.47 2421.75 1476.96C2422.73 1476.84 2422.73 1476.84 2423.73 1476.71C2425.82 1476.45 2427.91 1476.19 2430 1475.94C2432.09 1475.68 2434.18 1475.42 2436.27 1475.15C2438.16 1474.91 2440.06 1474.68 2441.95 1474.45C2445.03 1474.09 2445.03 1474.09 2448 1473C2449.19 1469.42 2449.14 1466.17 2449.13 1462.44C2449.13 1461.67 2449.13 1460.89 2449.13 1460.09C2449.14 1457.48 2449.13 1454.86 2449.13 1452.25C2449.13 1450.38 2449.13 1448.51 2449.13 1446.64C2449.14 1441.54 2449.14 1436.44 2449.13 1431.34C2449.13 1425.98 2449.13 1420.62 2449.14 1415.26C2449.14 1406.23 2449.14 1397.2 2449.13 1388.16C2449.12 1377.8 2449.13 1367.43 2449.13 1357.07C2449.14 1348.13 2449.14 1339.19 2449.13 1330.26C2449.13 1324.94 2449.13 1319.62 2449.14 1314.3C2449.15 1295.23 2449.15 1276.16 2448.62 1257.09C2448.59 1255.84 2448.56 1254.6 2448.52 1253.31C2448.33 1247.58 2448.1 1242.38 2446 1237C2439.65 1232.64 2429.19 1233.54 2421.73 1233.38C2420.89 1233.35 2420.05 1233.33 2419.18 1233.31C2418.05 1233.29 2418.05 1233.29 2416.89 1233.27C2415 1233 2415 1233 2413 1231C2412.81 1228.44 2412.81 1228.44 2413 1226C2414.76 1224.24 2417.07 1224.87 2419.41 1224.87Z" fill="var(--fill-0, #F8FBF9)"/>
<path id="Vector_14" d="M545.411 1224.87C546.194 1224.87 546.976 1224.87 547.782 1224.87C549.02 1224.87 549.02 1224.87 550.282 1224.87C553.068 1224.86 555.855 1224.87 558.641 1224.87C560.629 1224.87 562.618 1224.87 564.607 1224.87C570.024 1224.86 575.441 1224.86 580.858 1224.87C586.514 1224.87 592.17 1224.87 597.825 1224.86C607.325 1224.86 616.825 1224.86 626.324 1224.87C637.324 1224.88 648.324 1224.87 659.324 1224.87C668.75 1224.86 678.176 1224.86 687.602 1224.87C693.24 1224.87 698.877 1224.87 704.515 1224.86C709.814 1224.86 715.113 1224.86 720.412 1224.87C722.363 1224.87 724.314 1224.87 726.264 1224.87C728.916 1224.86 731.567 1224.87 734.218 1224.87C735.391 1224.87 735.391 1224.87 736.589 1224.87C741.886 1224.89 741.886 1224.89 743 1226C743.094 1227.81 743.117 1229.62 743.114 1231.44C743.113 1232.6 743.113 1233.76 743.113 1234.96C743.108 1236.22 743.103 1237.48 743.098 1238.79C743.096 1240.71 743.096 1240.71 743.093 1242.68C743.09 1246.11 743.08 1249.53 743.069 1252.96C743.058 1256.45 743.054 1259.94 743.049 1263.43C743.038 1270.29 743.021 1277.14 743 1284C741.35 1284 739.7 1284 738 1284C737.8 1283.48 737.599 1282.96 737.393 1282.42C732.833 1270.61 727.898 1259.2 722 1248C721.514 1247.04 721.028 1246.07 720.527 1245.08C720.106 1244.27 719.684 1243.46 719.25 1242.62C718.905 1241.96 718.559 1241.29 718.203 1240.6C716.628 1238.5 715.458 1237.95 713 1237C709.74 1236.7 709.74 1236.7 706.058 1236.76C705.02 1236.75 705.02 1236.75 703.961 1236.75C701.668 1236.75 699.375 1236.76 697.082 1236.77C695.466 1236.77 693.85 1236.77 692.234 1236.77C688.832 1236.77 685.43 1236.78 682.028 1236.79C677.745 1236.81 673.463 1236.81 669.18 1236.81C653.873 1236.81 638.562 1236.86 623.262 1237.32C621.735 1237.36 621.735 1237.36 620.177 1237.39C618.801 1237.44 618.801 1237.44 617.397 1237.49C616.613 1237.52 615.828 1237.54 615.02 1237.57C612.345 1238.14 611.537 1238.72 610 1241C608.776 1246.57 608.831 1252.2 608.795 1257.88C608.785 1258.85 608.775 1259.82 608.765 1260.81C608.733 1263.99 608.708 1267.16 608.684 1270.34C608.663 1272.55 608.642 1274.76 608.621 1276.97C608.566 1282.77 608.516 1288.57 608.468 1294.37C608.417 1300.3 608.362 1306.22 608.307 1312.15C608.199 1323.77 608.098 1335.38 608 1347C627.196 1347.04 646.39 1347.05 665.584 1346.74C667.861 1346.7 670.138 1346.68 672.414 1346.65C675.806 1346.62 679.198 1346.57 682.59 1346.51C683.594 1346.51 684.598 1346.5 685.633 1346.49C691.841 1346.36 698.438 1346.02 704 1343C705.993 1339.46 706.452 1336 707 1332C707.351 1329.46 707.705 1326.91 708.067 1324.37C708.31 1322.61 708.534 1320.85 708.736 1319.08C709.429 1313.69 710.434 1310.17 714 1306C716.688 1305.56 716.688 1305.56 719 1306C720 1307 720 1307 720.114 1309.53C720.108 1310.66 720.103 1311.79 720.098 1312.95C720.093 1314.86 720.093 1314.86 720.088 1316.82C720.084 1317.5 720.079 1318.19 720.075 1318.9C720.062 1321.06 720.056 1323.22 720.051 1325.38C720.038 1330.75 720.014 1336.13 719.99 1341.5C719.97 1346.02 719.954 1350.55 719.944 1355.07C719.938 1357.17 719.925 1359.27 719.912 1361.38C719.893 1368.97 720.149 1376.47 720.774 1384.04C721.064 1387.83 721.098 1391.57 721.062 1395.37C721.053 1396.64 721.044 1397.91 721.035 1399.21C721.018 1400.59 721.018 1400.59 721 1402C719.35 1402.33 717.7 1402.66 716 1403C712.974 1396.45 710.622 1390.01 709 1383C705.995 1369.19 705.995 1369.19 697 1359C692.206 1357.01 687.819 1356.72 682.7 1356.77C681.889 1356.77 681.079 1356.77 680.244 1356.77C677.582 1356.77 674.92 1356.79 672.258 1356.8C670.406 1356.81 668.553 1356.81 666.701 1356.81C661.838 1356.82 656.975 1356.84 652.112 1356.86C647.145 1356.88 642.178 1356.89 637.211 1356.9C627.474 1356.92 617.737 1356.96 608 1357C608.108 1369.81 608.221 1382.63 608.339 1395.44C608.394 1401.39 608.448 1407.34 608.497 1413.29C608.545 1419.05 608.598 1424.8 608.653 1430.55C608.673 1432.73 608.692 1434.92 608.709 1437.11C608.762 1443.74 608.844 1450.37 609 1457C609.024 1458.08 609.024 1458.08 609.048 1459.19C609.098 1461.02 609.182 1462.86 609.27 1464.7C609.335 1466.12 609.335 1466.12 609.402 1467.58C610.181 1470.73 611.501 1471.98 614 1474C617.706 1475.24 621.138 1475.15 624.997 1475.15C625.812 1475.15 626.627 1475.15 627.467 1475.16C630.171 1475.16 632.874 1475.17 635.578 1475.17C637.466 1475.17 639.354 1475.17 641.242 1475.18C645.21 1475.18 649.178 1475.19 653.146 1475.19C658.192 1475.19 663.238 1475.2 668.284 1475.22C672.192 1475.23 676.099 1475.23 680.006 1475.23C681.864 1475.23 683.721 1475.23 685.579 1475.24C713.786 1475.46 713.786 1475.46 737.637 1461.8C745.956 1451.94 750.723 1439.54 755.551 1427.72C755.943 1426.77 756.335 1425.83 756.738 1424.86C757.079 1424.02 757.42 1423.18 757.771 1422.31C759.19 1419.64 760.658 1417.91 763 1416C766.25 1416.25 766.25 1416.25 769 1417C768.018 1422.76 766.91 1428.45 765.5 1434.12C762.724 1446.02 761.756 1458.13 761.517 1470.32C761.379 1474.42 760.827 1477.89 759.472 1481.78C759.198 1482.57 758.924 1483.37 758.641 1484.19C758.429 1484.79 758.218 1485.38 758 1486C736.238 1486.13 714.476 1486.26 692.714 1486.39C682.604 1486.45 672.494 1486.51 662.384 1486.57C584.616 1487.05 584.616 1487.05 559.417 1487.09C557.482 1487.09 555.547 1487.1 553.613 1487.1C551.081 1487.11 548.55 1487.12 546.018 1487.12C544.943 1487.12 544.943 1487.12 543.846 1487.13C539.115 1487.11 539.115 1487.11 538 1486C537.75 1483.06 537.75 1483.06 538 1480C541.473 1477.68 543.63 1477.47 547.75 1476.96C548.732 1476.84 548.732 1476.84 549.733 1476.71C551.821 1476.45 553.911 1476.19 556 1475.94C558.089 1475.68 560.178 1475.42 562.267 1475.15C564.162 1474.91 566.057 1474.68 567.953 1474.45C571.034 1474.09 571.034 1474.09 574 1473C575.194 1469.42 575.138 1466.17 575.127 1462.44C575.129 1461.67 575.13 1460.89 575.132 1460.09C575.136 1457.48 575.133 1454.86 575.129 1452.25C575.131 1450.38 575.133 1448.51 575.135 1446.64C575.139 1441.54 575.137 1436.44 575.134 1431.34C575.132 1425.98 575.134 1420.62 575.136 1415.26C575.138 1406.23 575.135 1397.2 575.13 1388.16C575.125 1377.8 575.127 1367.43 575.132 1357.07C575.137 1348.13 575.137 1339.19 575.135 1330.26C575.133 1324.94 575.133 1319.62 575.136 1314.3C575.147 1295.23 575.149 1276.16 574.617 1257.09C574.586 1255.84 574.556 1254.6 574.525 1253.31C574.333 1247.58 574.102 1242.38 572 1237C565.652 1232.64 555.193 1233.54 547.731 1233.38C546.89 1233.35 546.05 1233.33 545.184 1233.31C544.047 1233.29 544.047 1233.29 542.888 1233.27C541 1233 541 1233 539 1231C538.812 1228.44 538.812 1228.44 539 1226C540.757 1224.24 543.07 1224.87 545.411 1224.87Z" fill="var(--fill-0, #F8FBF9)"/>
<path id="Vector_15" d="M1638 1223C1663.74 1223 1689.48 1223 1716 1223C1716 1225.97 1716 1228.94 1716 1232C1715.26 1232.11 1714.52 1232.22 1713.76 1232.33C1700.81 1233.97 1700.81 1233.97 1689 1239C1686.15 1243.65 1685.63 1247.14 1685.67 1252.55C1685.67 1253.66 1685.67 1253.66 1685.68 1254.79C1685.69 1257.15 1685.72 1259.51 1685.75 1261.88C1685.76 1263.36 1685.76 1264.84 1685.77 1266.33C1685.81 1275.08 1686.06 1283.82 1686.37 1292.57C1687.07 1312.54 1687.19 1332.5 1687.19 1352.49C1687.19 1357.32 1687.2 1362.15 1687.22 1366.99C1687.23 1370.79 1687.23 1374.6 1687.23 1378.41C1687.23 1380.19 1687.23 1381.97 1687.24 1383.75C1687.31 1399.77 1686.75 1416.13 1682.88 1431.75C1682.66 1432.61 1682.45 1433.48 1682.23 1434.37C1677.27 1453.21 1666.66 1468.55 1650 1479C1633.19 1488.2 1615.73 1492.37 1596.69 1492.32C1594.33 1492.31 1591.98 1492.34 1589.63 1492.36C1564.73 1492.47 1540.65 1484.48 1522.69 1466.79C1503.6 1447 1501.68 1422.81 1501.73 1396.55C1501.72 1394.9 1501.72 1393.24 1501.71 1391.59C1501.7 1388.06 1501.7 1384.54 1501.7 1381.01C1501.69 1375.44 1501.67 1369.86 1501.65 1364.28C1501.61 1350.44 1501.57 1336.61 1501.55 1322.77C1501.54 1311.98 1501.51 1301.19 1501.47 1290.39C1501.45 1284.85 1501.44 1279.31 1501.44 1273.77C1501.44 1270.33 1501.43 1266.89 1501.41 1263.44C1501.4 1261.85 1501.4 1260.26 1501.41 1258.67C1501.41 1256.49 1501.4 1254.31 1501.39 1252.14C1501.38 1250.92 1501.38 1249.7 1501.38 1248.45C1500.93 1244.34 1499.89 1241.67 1498 1238C1495.46 1236.73 1493.57 1236.82 1490.73 1236.75C1489.68 1236.72 1488.62 1236.69 1487.54 1236.65C1485.32 1236.59 1483.09 1236.54 1480.87 1236.48C1479.29 1236.43 1479.29 1236.43 1477.67 1236.38C1476.7 1236.35 1475.73 1236.33 1474.74 1236.3C1471.85 1235.98 1469.63 1235.2 1467 1234C1466.88 1230.62 1466.88 1230.62 1467 1227C1469.75 1224.25 1471.33 1224.73 1475.18 1224.68C1477.13 1224.65 1477.13 1224.65 1479.13 1224.62C1480.57 1224.61 1482.01 1224.6 1483.45 1224.59C1484.95 1224.57 1486.44 1224.55 1487.94 1224.53C1491.9 1224.48 1495.87 1224.44 1499.84 1224.4C1502.98 1224.37 1506.12 1224.33 1509.26 1224.29C1529.18 1224.03 1549.09 1223.95 1569 1224C1569 1227.3 1569 1230.6 1569 1234C1566.6 1235.2 1564.99 1235.16 1562.31 1235.21C1560.89 1235.25 1560.89 1235.25 1559.44 1235.3C1557.47 1235.35 1555.49 1235.39 1553.51 1235.43C1547.49 1235.62 1541.38 1236 1536 1239C1532.89 1248.33 1533.85 1259.41 1533.85 1269.14C1533.85 1270.5 1533.85 1271.87 1533.84 1273.23C1533.84 1276.9 1533.83 1280.57 1533.83 1284.24C1533.83 1286.56 1533.83 1288.87 1533.83 1291.18C1533.82 1299.32 1533.81 1307.45 1533.81 1315.58C1533.82 1323.06 1533.8 1330.54 1533.79 1338.01C1533.78 1344.51 1533.77 1351 1533.77 1357.49C1533.77 1361.34 1533.77 1365.18 1533.76 1369.03C1533.72 1384.49 1533.85 1399.95 1534.54 1415.39C1534.61 1416.86 1534.66 1418.34 1534.71 1419.81C1535.18 1434.56 1539.09 1450.11 1549.85 1460.85C1564.02 1472.92 1581.65 1476.58 1599.75 1476.38C1600.46 1476.37 1601.16 1476.37 1601.89 1476.36C1612.18 1476.29 1622.07 1475.94 1632 1473C1633.13 1472.67 1634.25 1472.34 1635.41 1472C1648.73 1467.5 1659.94 1458.61 1666.53 1446.1C1667.77 1443.42 1668.91 1440.74 1670 1438C1670.34 1437.25 1670.68 1436.5 1671.04 1435.73C1672.38 1431.91 1672.95 1428.06 1673.56 1424.06C1673.69 1423.3 1673.81 1422.53 1673.94 1421.74C1675.78 1409.95 1676.16 1398.07 1676.2 1386.16C1676.21 1384.86 1676.22 1383.56 1676.22 1382.22C1676.24 1377.98 1676.25 1373.74 1676.25 1369.5C1676.25 1368.77 1676.25 1368.05 1676.25 1367.3C1676.28 1344.56 1675.76 1321.89 1674.62 1299.19C1674.56 1297.92 1674.5 1296.64 1674.43 1295.33C1674.02 1287.22 1673.54 1279.11 1673 1271C1672.93 1269.93 1672.87 1268.87 1672.8 1267.77C1672.6 1264.73 1672.38 1261.71 1672.15 1258.68C1672.07 1257.35 1672.07 1257.35 1671.98 1256C1671.51 1250.34 1670.24 1246.7 1667 1242C1664.78 1240.26 1664.78 1240.26 1662.25 1239.25C1661.37 1238.86 1660.49 1238.46 1659.58 1238.06C1658.73 1237.71 1657.88 1237.36 1657 1237C1656.31 1236.7 1655.63 1236.4 1654.92 1236.1C1650.38 1234.24 1645.84 1233.3 1641 1232.53C1640.01 1232.27 1640.01 1232.27 1639 1232C1638 1230 1638 1230 1638 1223Z" fill="var(--fill-0, #F8FBF9)"/>
<path id="Vector_16" d="M2812.71 1216.68C2814.8 1216.69 2816.88 1216.66 2818.97 1216.64C2836.09 1216.56 2852.7 1220.7 2866 1232C2867.28 1234.44 2867.28 1234.44 2868 1237C2868.2 1237.72 2868.41 1238.44 2868.62 1239.18C2869.2 1243.51 2869.15 1247.82 2869.13 1252.19C2869.12 1253.15 2869.12 1254.12 2869.11 1255.11C2869.07 1261.5 2868.93 1267.87 2868.63 1274.25C2868.59 1275.01 2868.56 1275.76 2868.53 1276.54C2868.24 1281.76 2868.24 1281.76 2866 1284C2864.68 1284 2863.36 1284 2862 1284C2861.6 1282.33 2861.6 1282.33 2861.19 1280.63C2856.94 1263.77 2850.73 1246.48 2835.65 1236.54C2831.58 1234.18 2827.45 1232.47 2823 1231C2821.78 1230.59 2820.57 1230.18 2819.31 1229.75C2805.28 1226.6 2791.12 1229.61 2779 1237C2769.48 1243.59 2763.78 1252.96 2761.43 1264.22C2759.8 1274.77 2761.94 1284.21 2768 1293C2771.88 1298.07 2776.06 1301.9 2781.31 1305.5C2782.04 1306 2782.76 1306.51 2783.5 1307.02C2795.89 1315.49 2808.97 1322.91 2821.93 1330.46C2848.43 1345.92 2875.82 1362.01 2884.44 1393.56C2889.71 1415.24 2885.21 1438.39 2873.98 1457.42C2863.09 1474.85 2847.82 1485.77 2827.77 1490.53C2819.4 1492.29 2811.08 1492.4 2802.56 1492.38C2801.81 1492.37 2801.06 1492.37 2800.29 1492.37C2778.47 1492.3 2753.4 1488.76 2735.94 1474.5C2732.46 1469.67 2733.58 1463.62 2734 1458C2734.07 1457.1 2734.13 1456.19 2734.2 1455.26C2734.52 1451.04 2734.86 1446.83 2735.22 1442.61C2735.87 1435.03 2736.34 1427.45 2736.57 1419.84C2736.72 1416.11 2736.93 1413.18 2739 1410C2741.38 1409.81 2741.38 1409.81 2744 1410C2746.36 1413.54 2746.67 1416.65 2747.25 1420.75C2749.44 1434.29 2754.17 1445.35 2763 1456C2763.67 1456.85 2764.33 1457.7 2765.02 1458.58C2773.59 1468.93 2785.59 1476.89 2799 1479C2816.36 1480.55 2830.99 1478.1 2845.11 1467.4C2854.75 1458.9 2860.36 1445.14 2861.24 1432.55C2861.76 1417.45 2856.86 1405.19 2846.63 1394.06C2834.47 1382.63 2819.31 1374.38 2805 1366C2777.39 1349.83 2751.19 1333.64 2740 1302C2735.97 1284.79 2738.41 1265.78 2747.31 1250.59C2758.33 1233.72 2773.65 1222.53 2793.35 1217.91C2799.76 1216.68 2806.2 1216.66 2812.71 1216.68Z" fill="var(--fill-0, #FBFCFB)"/>
<path id="Vector_17" d="M938.712 1216.68C940.799 1216.69 942.884 1216.66 944.971 1216.64C962.089 1216.56 978.703 1220.7 992 1232C993.281 1234.44 993.281 1234.44 994 1237C994.204 1237.72 994.407 1238.44 994.617 1239.18C995.205 1243.51 995.147 1247.82 995.125 1252.19C995.122 1253.15 995.118 1254.12 995.115 1255.11C995.07 1261.5 994.928 1267.87 994.625 1274.25C994.594 1275.01 994.563 1275.76 994.532 1276.54C994.239 1281.76 994.239 1281.76 992 1284C990.68 1284 989.36 1284 988 1284C987.598 1282.33 987.598 1282.33 987.188 1280.63C982.936 1263.77 976.73 1246.48 961.648 1236.54C957.584 1234.18 953.453 1232.47 949 1231C947.783 1230.59 946.566 1230.18 945.313 1229.75C931.279 1226.6 917.117 1229.61 905 1237C895.479 1243.59 889.78 1252.96 887.43 1264.22C885.799 1274.77 887.942 1284.21 894 1293C897.878 1298.07 902.063 1301.9 907.313 1305.5C908.035 1306 908.758 1306.51 909.503 1307.02C921.889 1315.49 934.974 1322.91 947.93 1330.46C974.431 1345.92 1001.82 1362.01 1010.44 1393.56C1015.71 1415.24 1011.21 1438.39 999.976 1457.42C989.094 1474.85 973.818 1485.77 953.767 1490.53C945.395 1492.29 937.075 1492.4 928.563 1492.38C927.812 1492.37 927.061 1492.37 926.287 1492.37C904.466 1492.3 879.403 1488.76 861.938 1474.5C858.462 1469.67 859.579 1463.62 860 1458C860.067 1457.1 860.133 1456.19 860.202 1455.26C860.522 1451.04 860.856 1446.83 861.217 1442.61C861.867 1435.03 862.343 1427.45 862.57 1419.84C862.718 1416.11 862.931 1413.18 865 1410C867.375 1409.81 867.375 1409.81 870 1410C872.359 1413.54 872.666 1416.65 873.25 1420.75C875.444 1434.29 880.175 1445.35 889 1456C889.666 1456.85 890.333 1457.7 891.02 1458.58C899.587 1468.93 911.593 1476.89 925 1479C942.356 1480.55 956.992 1478.1 971.113 1467.4C980.751 1458.9 986.359 1445.14 987.242 1432.55C987.762 1417.45 982.861 1405.19 972.625 1394.06C960.468 1382.63 945.31 1374.38 931 1366C903.393 1349.83 877.187 1333.64 866 1302C861.973 1284.79 864.41 1265.78 873.309 1250.59C884.326 1233.72 899.652 1222.53 919.348 1217.91C925.765 1216.68 932.201 1216.66 938.712 1216.68Z" fill="var(--fill-0, #FBFCFB)"/>
<path id="Vector_18" d="M2243.11 1218.55C2245.93 1218.56 2248.75 1218.53 2251.57 1218.5C2267.36 1218.44 2282.41 1220.66 2297.19 1226.44C2297.94 1226.71 2298.69 1226.99 2299.47 1227.27C2304.59 1229.2 2309.92 1231.28 2314 1235C2315.22 1238.33 2315.22 1238.33 2315.5 1242.25C2315.56 1242.96 2315.62 1243.67 2315.68 1244.41C2316.42 1255.23 2316.17 1266.16 2316 1277C2313.36 1277 2310.72 1277 2308 1277C2307.76 1276.47 2307.53 1275.94 2307.28 1275.4C2301.09 1261.3 2301.09 1261.3 2292 1249C2291.26 1248.11 2291.26 1248.11 2290.5 1247.2C2281.28 1236.83 2266.43 1230.96 2253 1229C2248.63 1228.76 2244.25 1228.77 2239.87 1228.75C2238.13 1228.72 2238.13 1228.72 2236.36 1228.69C2225.11 1228.64 2215.3 1230.66 2205.44 1236.13C2204.72 1236.52 2203.99 1236.91 2203.25 1237.31C2196.9 1240.86 2191.35 1245.06 2186 1250C2185.3 1250.62 2184.59 1251.25 2183.87 1251.89C2173.47 1261.6 2166.77 1274.18 2161 1287C2160.72 1287.61 2160.44 1288.22 2160.15 1288.85C2141.7 1330.11 2143.56 1387.06 2159 1429C2166.36 1447.04 2176.96 1462.16 2194 1472C2194.93 1472.54 2195.86 1473.08 2196.81 1473.63C2216.34 1484.19 2240.65 1485.22 2261.89 1479.32C2288.46 1471.1 2302.25 1454.95 2314.98 1430.88C2315.66 1429.59 2316.33 1428.3 2317 1427C2318.65 1427.33 2320.3 1427.66 2322 1428C2322.3 1438.02 2320.32 1447.3 2318.18 1457.06C2317.73 1459.19 2317.3 1461.32 2316.91 1463.46C2313.7 1480.74 2313.7 1480.74 2309.28 1484.44C2304.74 1486.84 2300.05 1487.44 2295 1488C2293.41 1488.35 2291.83 1488.72 2290.25 1489.11C2289.04 1489.32 2287.82 1489.53 2286.56 1489.75C2285.33 1489.97 2284.09 1490.19 2282.82 1490.42C2274.78 1491.64 2266.94 1492.17 2258.82 1492.2C2257.76 1492.21 2256.71 1492.21 2255.62 1492.22C2253.4 1492.23 2251.17 1492.24 2248.95 1492.24C2245.6 1492.25 2242.26 1492.28 2238.92 1492.31C2222.67 1492.39 2206.87 1491.7 2191.62 1485.5C2190.76 1485.16 2189.9 1484.82 2189.01 1484.47C2174.9 1478.7 2161.15 1471.51 2150 1461C2149.52 1460.56 2149.03 1460.11 2148.53 1459.65C2126.83 1439.62 2115.04 1411.98 2111 1383C2110.91 1382.35 2110.81 1381.7 2110.72 1381.03C2105.35 1339.26 2115.94 1299.9 2141.08 1266.38C2161.4 1240.18 2188.42 1223.73 2221.41 1219.28C2228.62 1218.5 2235.87 1218.52 2243.11 1218.55Z" fill="var(--fill-0, #FAFCFB)"/>
<path id="Vector_19" d="M1434 429C1437.38 432.09 1438.67 435.663 1440.25 439.875C1440.55 440.661 1440.85 441.447 1441.16 442.256C1444.11 450.083 1446.74 458.013 1449.32 465.965C1452.02 474.159 1455.07 482.218 1458.14 490.276C1461.88 500.113 1465.41 509.991 1468.69 519.99C1470.83 526.501 1473.02 532.991 1475.25 539.469C1475.54 540.303 1475.82 541.137 1476.12 541.996C1477.28 545.357 1478.44 548.718 1479.6 552.076C1488.4 577.468 1488.4 577.468 1490 588C1484.89 588.841 1479.94 589.144 1474.76 589.129C1473.97 589.131 1473.18 589.133 1472.36 589.135C1469.75 589.139 1467.15 589.136 1464.54 589.133C1462.71 589.133 1460.87 589.134 1459.04 589.136C1455.2 589.137 1451.36 589.135 1447.52 589.13C1442.64 589.125 1437.77 589.128 1432.89 589.134C1429.1 589.138 1425.31 589.136 1421.52 589.134C1419.73 589.133 1417.93 589.134 1416.14 589.136C1404.72 589.148 1393.39 588.807 1382 588C1380.87 584.138 1381.34 581.902 1382.48 578.012C1382.81 576.838 1383.15 575.665 1383.5 574.456C1383.87 573.212 1384.24 571.969 1384.62 570.688C1385 569.4 1385.38 568.112 1385.75 566.823C1387.93 559.42 1390.22 552.076 1392.74 544.781C1394.03 540.909 1395.21 537.016 1396.38 533.104C1404.16 507.063 1413.73 481.643 1423.19 456.18C1423.96 454.112 1424.72 452.044 1425.49 449.975C1426.76 446.545 1428.04 443.116 1429.31 439.688C1429.86 438.203 1429.86 438.203 1430.42 436.689C1430.92 435.364 1430.92 435.364 1431.43 434.012C1431.85 432.874 1431.85 432.874 1432.28 431.714C1433 430 1433 430 1434 429Z" fill="var(--fill-0, #186F38)"/>
<path id="Vector_20" d="M1875 1236C1896.78 1235.36 1916.15 1235.86 1933.75 1250.44C1944.63 1260.89 1949.85 1275.01 1950.4 1289.9C1950.65 1305.54 1946.5 1320.02 1936 1332C1925.61 1340.47 1913.44 1342.79 1900.56 1344.75C1899.74 1344.88 1898.92 1345.01 1898.07 1345.14C1892.75 1345.87 1887.52 1346.07 1882.15 1346.03C1881.46 1346.03 1880.77 1346.03 1880.06 1346.03C1878.37 1346.02 1876.69 1346.01 1875 1346C1874.85 1332.84 1874.7 1319.68 1874.56 1306.52C1874.49 1300.41 1874.42 1294.29 1874.35 1288.18C1874.28 1282.28 1874.22 1276.38 1874.16 1270.48C1874.13 1268.23 1874.11 1265.98 1874.08 1263.74C1874.04 1260.58 1874.01 1257.43 1873.98 1254.27C1873.96 1252.88 1873.96 1252.88 1873.94 1251.47C1873.9 1246.21 1874.23 1241.2 1875 1236Z" fill="var(--fill-0, #176F38)"/>
<path id="Vector_21" d="M303 1236C324.776 1235.36 344.152 1235.86 361.75 1250.44C372.63 1260.89 377.848 1275.01 378.398 1289.9C378.648 1305.54 374.504 1320.02 364 1332C353.612 1340.47 341.443 1342.79 328.563 1344.75C327.742 1344.88 326.921 1345.01 326.075 1345.14C320.755 1345.87 315.518 1346.07 310.152 1346.03C309.462 1346.03 308.771 1346.03 308.06 1346.03C306.373 1346.02 304.687 1346.01 303 1346C302.846 1332.84 302.698 1319.68 302.557 1306.52C302.492 1300.41 302.424 1294.29 302.352 1288.18C302.282 1282.28 302.218 1276.38 302.157 1270.48C302.133 1268.23 302.107 1265.98 302.079 1263.74C302.041 1260.58 302.009 1257.43 301.978 1254.27C301.959 1252.88 301.959 1252.88 301.939 1251.47C301.896 1246.21 302.227 1241.2 303 1236Z" fill="var(--fill-0, #176F38)"/>
</g>
<defs>
<clipPath id="clip0_0_4">
<rect width="3165" height="1845" fill="white"/>
</clipPath>
</defs>
</svg>
